<svg version="1.1" id="Layer_1" xmlns="http://www.w3.org/2000/svg" xmlns:xlink="http://www.w3.org/1999/xlink" x="0px" y="0px"
	 width="100%" viewBox="0 0 1440 1113" enable-background="new 0 0 1440 1113" xml:space="preserve">
<path fill="#7ED0FF" opacity="1.000000" stroke="none" 
	d="
M971.000000,1114.000000 
	C647.333313,1114.000000 324.166656,1114.000000 1.000000,1114.000000 
	C1.000000,743.000000 1.000000,372.000000 1.000000,1.000000 
	C481.000000,1.000000 961.000000,1.000000 1441.000000,1.000000 
	C1441.000000,372.000000 1441.000000,743.000000 1441.000000,1114.000000 
	C1284.500000,1114.000000 1128.000000,1114.000000 971.000000,1114.000000 
M1002.607910,351.822998 
	C991.887878,344.504852 981.323486,336.945374 970.418030,329.914856 
	C940.431763,310.583344 909.124268,293.687622 876.661133,278.834717 
	C837.592834,260.959778 797.206238,247.130386 755.358032,237.504761 
	C721.368774,229.686783 686.987366,224.945923 652.078613,224.283585 
	C616.206482,223.602982 580.555725,225.866821 545.188171,232.087250 
	C516.415771,237.147720 488.209534,244.167450 461.149200,255.447281 
	C437.087616,265.477142 414.218201,277.584534 392.794098,292.500793 
	C374.503967,305.235077 357.805725,319.599213 344.275604,337.401978 
	C342.287415,340.018005 340.591736,340.701263 337.646423,338.981079 
	C317.348999,327.126617 294.494934,322.174591 272.189240,316.454224 
	C252.464005,311.395569 231.971069,309.084747 211.700623,306.460419 
	C186.758560,303.231201 161.758698,303.949249 137.304825,310.166687 
	C114.340294,316.005493 98.518616,329.428223 94.664894,354.231018 
	C94.334106,356.359985 92.610214,359.023224 90.763794,360.038422 
	C81.922745,364.899536 75.182732,371.896851 69.228928,379.803070 
	C58.634682,393.871490 53.999138,410.367310 50.080490,427.140900 
	C45.308727,447.566223 47.907455,467.364410 58.877029,484.900513 
	C68.079079,499.610992 79.072975,513.380310 90.545273,526.449951 
	C108.929520,547.394104 130.454544,565.095459 152.496490,582.073303 
	C174.519836,599.036865 197.522720,614.558899 221.314774,628.984863 
	C247.638519,644.945740 273.524323,661.628357 299.629028,677.951660 
	C303.490051,680.365967 307.506195,682.532166 311.450531,684.813171 
	C309.819855,685.724548 308.584351,685.671875 307.375305,685.464722 
	C278.073639,680.444458 248.478531,679.160645 218.845001,679.136353 
	C199.011734,679.120117 185.282684,692.227112 183.040039,711.817505 
	C182.359512,717.762268 181.542694,723.706665 180.436523,729.585022 
	C175.340271,756.667419 175.350525,783.519104 183.340652,810.139954 
	C185.875031,818.583801 185.086868,818.544128 177.340790,822.985474 
	C162.210571,831.660645 146.639099,839.929077 132.795090,850.406860 
	C106.286285,870.469971 80.923119,892.041992 54.943401,912.811340 
	C46.376041,919.660522 39.734821,927.585449 36.842865,938.396606 
	C33.018711,952.692627 39.597370,968.541443 52.933132,974.670959 
	C66.800690,981.044922 80.561600,979.256653 92.668991,970.415222 
	C106.221573,960.518494 119.086792,949.670959 132.124390,939.081177 
	C146.344101,927.531311 160.253876,915.510498 176.854507,907.402466 
	C194.056183,899.000916 211.197342,890.380127 228.854034,883.030151 
	C249.872513,874.280823 271.020477,865.452515 292.813538,859.042358 
	C328.670929,848.495361 365.973999,846.815002 403.079376,846.175598 
	C434.356476,845.636597 465.674713,846.943726 496.963898,847.820618 
	C521.085815,848.496521 545.185852,849.917847 569.304626,850.746643 
	C601.913269,851.867432 634.525146,853.058044 667.145874,853.601746 
	C688.284180,853.954041 709.480530,853.921814 730.578735,852.756104 
	C753.797302,851.473145 777.074890,849.667542 800.069397,846.320984 
	C829.019104,842.107849 857.858276,836.803894 886.467041,830.673096 
	C915.086975,824.539978 943.562622,817.513123 971.739136,809.589478 
	C1003.949280,800.531616 1033.753052,785.392944 1063.379639,770.110352 
	C1098.877441,751.799072 1133.633911,732.079529 1170.482056,716.383728 
	C1201.563965,703.143921 1233.378662,692.393982 1266.583618,686.466797 
	C1286.677002,682.880127 1307.120483,679.899231 1327.465088,679.479553 
	C1345.620605,679.105042 1363.869995,682.497742 1382.050537,684.478210 
	C1390.143555,685.359863 1398.133179,687.391663 1406.234863,687.941101 
	C1416.966064,688.668884 1424.982422,680.397888 1423.594604,669.717163 
	C1422.919922,664.523743 1421.035889,658.530396 1417.598022,654.876221 
	C1412.378296,649.328064 1405.926025,644.018982 1398.949707,641.207947 
	C1372.954224,630.733154 1345.519409,625.626160 1317.648071,624.433899 
	C1296.554932,623.531555 1275.363525,624.861572 1254.218140,625.309814 
	C1250.237061,625.394165 1246.154175,625.544922 1242.321411,626.489563 
	C1237.786255,627.607300 1235.814697,625.750305 1233.689575,622.067017 
	C1219.390259,597.282654 1205.203979,572.420410 1190.250610,548.031250 
	C1182.177856,534.864624 1172.661377,522.583191 1164.560059,509.450470 
	C1168.436768,507.191772 1172.514771,505.216156 1176.156372,502.626892 
	C1194.857666,489.329987 1213.548462,476.012970 1232.012085,462.390381 
	C1237.455200,458.374481 1242.757446,453.810028 1244.620361,446.731812 
	C1248.828857,430.741699 1241.549438,416.969055 1225.968140,411.283600 
	C1217.365601,408.144684 1208.729492,405.084991 1200.215454,401.718994 
	C1186.425659,396.267120 1184.742188,392.545959 1187.938232,377.990692 
	C1190.364868,366.938843 1192.878662,355.795624 1190.771973,344.369873 
	C1187.805542,328.281464 1172.028320,319.089508 1156.748535,324.689697 
	C1144.757202,329.084534 1132.373779,331.163849 1119.742798,332.421448 
	C1114.491577,332.944336 1112.260986,330.701263 1110.942261,325.964172 
	C1108.802490,318.277954 1105.988647,310.780273 1103.812866,303.102844 
	C1101.825684,296.090759 1099.566162,289.028656 1098.762939,281.839294 
	C1097.669922,272.055664 1093.245850,265.790710 1083.686890,263.146942 
	C1072.012207,259.917999 1061.544556,260.685425 1053.951782,271.712372 
	C1053.131714,272.903259 1051.798584,273.793549 1050.581543,274.649963 
	C1041.668091,280.922150 1034.790649,289.201355 1029.816040,298.622589 
	C1020.498352,316.269226 1012.063599,334.382141 1002.607910,351.822998 
M1120.597290,209.908463 
	C1113.333008,203.747253 1104.825439,201.872925 1095.820923,204.056015 
	C1083.353149,207.078751 1074.952881,219.679062 1076.765991,233.088989 
	C1078.398560,245.163651 1086.957275,254.030655 1101.286377,255.271530 
	C1111.705811,256.173828 1120.016235,251.417831 1125.086304,242.632782 
	C1131.541016,231.448410 1129.716187,220.455368 1120.597290,209.908463 
M1296.169434,415.664093 
	C1305.337402,405.869965 1305.817627,390.576233 1297.234497,381.741180 
	C1288.151978,372.392090 1274.345215,372.204651 1263.528442,381.283569 
	C1253.277466,389.887573 1251.384644,404.454620 1259.179199,414.755157 
	C1267.783081,426.125153 1284.238647,426.761139 1296.169434,415.664093 
M1210.854980,315.994385 
	C1212.324951,315.715179 1213.841309,315.582794 1215.257568,315.134216 
	C1230.724854,310.235443 1238.315796,293.886658 1226.850952,279.594360 
	C1220.949097,272.237000 1207.811890,270.075745 1199.881958,274.453033 
	C1189.791382,280.023041 1184.458252,290.674194 1187.192627,300.168396 
	C1189.744263,309.028442 1197.509888,317.178497 1210.854980,315.994385 
z"/>
<path fill="#FDFEFF" opacity="1.000000" stroke="none" 
	d="
M1163.796387,509.902435 
	C1172.661377,522.583191 1182.177856,534.864624 1190.250610,548.031250 
	C1205.203979,572.420410 1219.390259,597.282654 1233.689575,622.067017 
	C1235.814697,625.750305 1237.786255,627.607300 1242.321411,626.489563 
	C1246.154175,625.544922 1250.237061,625.394165 1254.218140,625.309814 
	C1275.363525,624.861572 1296.554932,623.531555 1317.648071,624.433899 
	C1345.519409,625.626160 1372.954224,630.733154 1398.949707,641.207947 
	C1405.926025,644.018982 1412.378296,649.328064 1417.598022,654.876221 
	C1421.035889,658.530396 1422.919922,664.523743 1423.594604,669.717163 
	C1424.982422,680.397888 1416.966064,688.668884 1406.234863,687.941101 
	C1398.133179,687.391663 1390.143555,685.359863 1382.050537,684.478210 
	C1363.869995,682.497742 1345.620605,679.105042 1327.465088,679.479553 
	C1307.120483,679.899231 1286.677002,682.880127 1266.583618,686.466797 
	C1233.378662,692.393982 1201.563965,703.143921 1170.482056,716.383728 
	C1133.633911,732.079529 1098.877441,751.799072 1063.379639,770.110352 
	C1033.753052,785.392944 1003.949280,800.531616 971.739136,809.589478 
	C943.562622,817.513123 915.086975,824.539978 886.467041,830.673096 
	C857.858276,836.803894 829.019104,842.107849 800.069397,846.320984 
	C777.074890,849.667542 753.797302,851.473145 730.578735,852.756104 
	C709.480530,853.921814 688.284180,853.954041 667.145874,853.601746 
	C634.525146,853.058044 601.913269,851.867432 569.304626,850.746643 
	C545.185852,849.917847 521.085815,848.496521 496.963898,847.820618 
	C465.674713,846.943726 434.356476,845.636597 403.079376,846.175598 
	C365.973999,846.815002 328.670929,848.495361 292.813538,859.042358 
	C271.020477,865.452515 249.872513,874.280823 228.854034,883.030151 
	C211.197342,890.380127 194.056183,899.000916 176.854507,907.402466 
	C160.253876,915.510498 146.344101,927.531311 132.124390,939.081177 
	C119.086792,949.670959 106.221573,960.518494 92.668991,970.415222 
	C80.561600,979.256653 66.800690,981.044922 52.933132,974.670959 
	C39.597370,968.541443 33.018711,952.692627 36.842865,938.396606 
	C39.734821,927.585449 46.376041,919.660522 54.943401,912.811340 
	C80.923119,892.041992 106.286285,870.469971 132.795090,850.406860 
	C146.639099,839.929077 162.210571,831.660645 177.340790,822.985474 
	C185.086868,818.544128 185.875031,818.583801 183.340652,810.139954 
	C175.350525,783.519104 175.340271,756.667419 180.436523,729.585022 
	C181.542694,723.706665 182.359512,717.762268 183.040039,711.817505 
	C185.282684,692.227112 199.011734,679.120117 218.845001,679.136353 
	C248.478531,679.160645 278.073639,680.444458 307.375305,685.464722 
	C308.584351,685.671875 309.819855,685.724548 311.450531,684.813171 
	C307.506195,682.532166 303.490051,680.365967 299.629028,677.951660 
	C273.524323,661.628357 247.638519,644.945740 221.314774,628.984863 
	C197.522720,614.558899 174.519836,599.036865 152.496490,582.073303 
	C130.454544,565.095459 108.929520,547.394104 90.545273,526.449951 
	C79.072975,513.380310 68.079079,499.610992 58.877029,484.900513 
	C47.907455,467.364410 45.308727,447.566223 50.080490,427.140900 
	C53.999138,410.367310 58.634682,393.871490 69.228928,379.803070 
	C75.182732,371.896851 81.922745,364.899536 90.763794,360.038422 
	C92.610214,359.023224 94.334106,356.359985 94.664894,354.231018 
	C98.518616,329.428223 114.340294,316.005493 137.304825,310.166687 
	C161.758698,303.949249 186.758560,303.231201 211.700623,306.460419 
	C231.971069,309.084747 252.464005,311.395569 272.189240,316.454224 
	C294.494934,322.174591 317.348999,327.126617 337.646423,338.981079 
	C340.591736,340.701263 342.287415,340.018005 344.275604,337.401978 
	C357.805725,319.599213 374.503967,305.235077 392.794098,292.500793 
	C414.218201,277.584534 437.087616,265.477142 461.149200,255.447281 
	C488.209534,244.167450 516.415771,237.147720 545.188171,232.087250 
	C580.555725,225.866821 616.206482,223.602982 652.078613,224.283585 
	C686.987366,224.945923 721.368774,229.686783 755.358032,237.504761 
	C797.206238,247.130386 837.592834,260.959778 876.661133,278.834717 
	C909.124268,293.687622 940.431763,310.583344 970.418030,329.914856 
	C981.323486,336.945374 991.887878,344.504852 1003.003113,352.266083 
	C1004.482788,353.914764 1005.416687,355.313812 1006.676147,356.294647 
	C1015.195007,362.929016 1023.774048,369.486084 1032.351562,376.044800 
	C1036.819824,379.461487 1041.324707,382.830536 1046.064697,386.437897 
	C1058.062134,397.153900 1070.267090,407.189453 1081.443604,418.262970 
	C1097.471069,434.142853 1112.748169,450.780029 1128.504639,467.423767 
	C1129.242065,468.752991 1129.699829,469.850037 1130.417358,470.736877 
	C1140.213989,482.845398 1150.019531,494.947083 1159.911499,506.977570 
	C1160.912109,508.194519 1162.487671,508.938782 1163.796387,509.902435 
M250.480179,413.032562 
	C256.319946,416.873993 261.965851,421.057709 268.034576,424.494843 
	C289.176270,436.468933 310.193024,448.709656 331.769897,459.856781 
	C355.270996,471.997986 378.946686,483.963043 403.257477,494.338348 
	C442.086639,510.909821 482.710327,522.180664 523.695618,532.194031 
	C554.450073,539.707947 585.360657,546.136597 616.869019,549.534851 
	C636.091919,551.608154 655.255737,552.782104 674.591980,550.468262 
	C683.606201,549.389648 692.823303,548.879578 701.779907,552.157532 
	C722.018555,559.564697 731.889343,580.623047 723.898682,600.305908 
	C717.994812,614.848389 706.055359,622.016113 691.392517,624.612854 
	C673.492615,627.782959 655.375366,628.959717 637.203979,627.067444 
	C615.542419,624.811707 593.713989,623.460205 572.293152,619.770081 
	C546.248230,615.283264 520.551392,608.773499 494.706909,603.125305 
	C461.611176,595.892395 429.338806,585.760376 397.796326,573.612305 
	C376.239349,565.309937 355.185120,555.552307 334.401367,545.428589 
	C305.827148,531.510010 277.421326,517.179626 249.525528,501.958740 
	C232.460953,492.647766 216.469467,481.365417 200.028564,470.917267 
	C178.552582,457.269257 156.256592,444.812653 137.155075,427.704712 
	C132.497086,423.532837 127.768600,419.439697 122.268753,414.603607 
	C121.785049,417.114075 121.209557,418.646912 121.252052,420.162445 
	C121.363869,424.150238 121.572662,428.151428 122.054131,432.109406 
	C123.021507,440.061798 123.995132,448.094391 129.365204,454.586945 
	C135.409729,461.894897 141.335251,469.331451 147.803024,476.253784 
	C173.538879,503.798370 203.574219,526.233276 234.605927,547.241455 
	C260.514862,564.781555 287.112030,581.331604 313.756104,597.749329 
	C329.186737,607.257507 344.925201,616.433105 361.205536,624.361206 
	C396.391724,641.495911 432.053101,657.657227 461.798645,683.932251 
	C473.588135,694.346191 484.453491,705.469910 492.148254,719.426636 
	C500.855865,735.220459 501.918091,756.273621 486.948334,769.950684 
	C486.637695,770.234558 486.606140,770.823914 486.195190,771.959167 
	C487.698853,772.329651 489.010620,772.878662 490.346252,772.944702 
	C497.993011,773.322754 505.643097,773.679016 513.296387,773.871826 
	C541.762207,774.589294 570.230347,775.212341 598.696350,775.924377 
	C624.165222,776.561462 649.629272,777.611389 675.101196,777.838501 
	C695.912659,778.024048 716.745483,777.597961 737.543762,776.794006 
	C749.320007,776.338806 761.071594,774.787598 772.788452,773.354980 
	C793.918640,770.771545 815.098267,768.424561 836.101929,765.020142 
	C859.401794,761.243408 882.771057,757.379150 905.659119,751.726868 
	C927.428223,746.351013 948.702332,738.882080 970.034302,731.849121 
	C992.024902,724.599060 1013.654053,716.416443 1034.258789,705.645752 
	C1060.521606,691.917297 1086.831177,678.254089 1113.468506,665.276489 
	C1125.706787,659.313843 1138.718140,654.905640 1151.482422,650.065613 
	C1160.512939,646.641479 1160.876099,646.410156 1155.926636,637.966248 
	C1148.353027,625.045410 1140.715942,612.155029 1132.789429,599.448975 
	C1110.331909,563.449829 1084.174683,530.248352 1054.901245,499.620636 
	C1038.461792,482.420807 1021.162292,465.978027 1003.487610,450.039978 
	C979.971497,428.834381 954.492310,410.023529 927.799988,393.008148 
	C892.335327,370.400726 855.481689,350.258087 815.822327,335.947937 
	C793.296204,327.819916 770.430969,320.452179 747.345459,314.097229 
	C714.844238,305.150330 681.471252,300.988800 647.850769,298.707794 
	C619.670410,296.795929 591.552856,297.554443 563.638184,301.438141 
	C531.559509,305.901245 500.207123,313.860321 470.010071,325.598572 
	C449.553772,333.550385 429.525757,342.643524 409.514465,351.687012 
	C395.561493,357.992645 381.999420,365.158417 368.186035,371.779938 
	C362.210815,374.644165 355.354034,376.166565 350.138824,379.990997 
	C343.882660,384.578827 337.613739,387.456970 329.960114,387.090057 
	C309.854889,386.126160 289.733948,385.355133 269.658203,383.950867 
	C251.911896,382.709503 234.228317,380.594238 216.495071,379.130890 
	C210.870697,378.666779 205.175705,379.058350 199.513016,379.058350 
	C199.268951,379.448792 199.024887,379.839264 198.780807,380.229706 
	C215.820663,391.021118 232.860519,401.812561 250.480179,413.032562 
M362.095886,749.345642 
	C350.003357,747.060059 337.887390,744.890930 325.823303,742.463928 
	C302.903076,737.852905 279.814453,735.346924 256.396362,735.883118 
	C251.896347,735.986206 250.509872,737.453796 251.020966,741.790039 
	C251.837173,748.715088 252.373108,755.676514 252.887070,762.632935 
	C253.413971,769.764648 253.604019,776.924255 254.257187,784.042603 
	C254.781906,789.761292 256.305847,790.581360 261.732849,788.849182 
	C292.870483,778.910583 324.892822,774.167542 357.462433,773.192139 
	C382.422821,772.444763 407.403564,772.380920 432.374786,771.983704 
	C434.051514,771.956970 435.724335,771.681274 437.958374,771.467957 
	C434.797333,766.207092 430.845093,764.122559 425.817505,763.078430 
	C404.813904,758.716675 383.863861,754.097168 362.095886,749.345642 
z"/>
<path fill="#EDDF67" opacity="1.000000" stroke="none" 
	d="
M1045.812988,386.221130 
	C1041.324707,382.830536 1036.819824,379.461487 1032.351562,376.044800 
	C1023.774048,369.486084 1015.195007,362.929016 1006.676147,356.294647 
	C1005.416687,355.313812 1004.482788,353.914764 1003.329956,352.505127 
	C1012.063599,334.382141 1020.498352,316.269226 1029.816040,298.622589 
	C1034.790649,289.201355 1041.668091,280.922150 1050.581543,274.649963 
	C1051.798584,273.793549 1053.131714,272.903259 1053.951782,271.712372 
	C1061.544556,260.685425 1072.012207,259.917999 1083.686890,263.146942 
	C1093.245850,265.790710 1097.669922,272.055664 1098.762939,281.839294 
	C1099.566162,289.028656 1101.825684,296.090759 1103.812866,303.102844 
	C1105.988647,310.780273 1108.802490,318.277954 1110.942261,325.964172 
	C1112.260986,330.701263 1114.491577,332.944336 1119.742798,332.421448 
	C1132.373779,331.163849 1144.757202,329.084534 1156.748535,324.689697 
	C1172.028320,319.089508 1187.805542,328.281464 1190.771973,344.369873 
	C1192.878662,355.795624 1190.364868,366.938843 1187.938232,377.990692 
	C1184.742188,392.545959 1186.425659,396.267120 1200.215454,401.718994 
	C1208.729492,405.084991 1217.365601,408.144684 1225.968140,411.283600 
	C1241.549438,416.969055 1248.828857,430.741699 1244.620361,446.731812 
	C1242.757446,453.810028 1237.455200,458.374481 1232.012085,462.390381 
	C1213.548462,476.012970 1194.857666,489.329987 1176.156372,502.626892 
	C1172.514771,505.216156 1168.436768,507.191772 1164.178223,509.676453 
	C1162.487671,508.938782 1160.912109,508.194519 1159.911499,506.977570 
	C1150.019531,494.947083 1140.213989,482.845398 1130.417358,470.736877 
	C1129.699829,469.850037 1129.242065,468.752991 1128.774902,467.156433 
	C1137.515991,457.379517 1148.606201,451.998901 1159.669800,446.555176 
	C1164.563477,444.147339 1164.800293,442.715454 1160.706177,439.637024 
	C1143.241699,426.505463 1135.165283,408.958740 1136.175781,387.263306 
	C1136.398315,382.486176 1134.390381,381.617584 1130.270020,381.994293 
	C1124.649902,382.508118 1118.972656,383.061707 1113.355835,382.807281 
	C1101.935669,382.290100 1091.553467,378.883179 1082.956665,370.799774 
	C1076.442017,364.674103 1072.535278,357.107330 1069.423706,348.938477 
	C1068.879028,347.508575 1067.658691,346.336060 1066.750488,345.044617 
	C1065.625122,346.119232 1064.063965,346.987457 1063.442017,348.300537 
	C1057.475098,360.897858 1051.666748,373.570251 1045.812988,386.221130 
z"/>
<path fill="#EADF6C" opacity="1.000000" stroke="none" 
	d="
M1120.848389,210.156448 
	C1129.716187,220.455368 1131.541016,231.448410 1125.086304,242.632782 
	C1120.016235,251.417831 1111.705811,256.173828 1101.286377,255.271530 
	C1086.957275,254.030655 1078.398560,245.163651 1076.765991,233.088989 
	C1074.952881,219.679062 1083.353149,207.078751 1095.820923,204.056015 
	C1104.825439,201.872925 1113.333008,203.747253 1120.848389,210.156448 
z"/>
<path fill="#EADF6B" opacity="1.000000" stroke="none" 
	d="
M1295.917236,415.914642 
	C1284.238647,426.761139 1267.783081,426.125153 1259.179199,414.755157 
	C1251.384644,404.454620 1253.277466,389.887573 1263.528442,381.283569 
	C1274.345215,372.204651 1288.151978,372.392090 1297.234497,381.741180 
	C1305.817627,390.576233 1305.337402,405.869965 1295.917236,415.914642 
z"/>
<path fill="#EADF6B" opacity="1.000000" stroke="none" 
	d="
M1210.450684,316.078705 
	C1197.509888,317.178497 1189.744263,309.028442 1187.192627,300.168396 
	C1184.458252,290.674194 1189.791382,280.023041 1199.881958,274.453033 
	C1207.811890,270.075745 1220.949097,272.237000 1226.850952,279.594360 
	C1238.315796,293.886658 1230.724854,310.235443 1215.257568,315.134216 
	C1213.841309,315.582794 1212.324951,315.715179 1210.450684,316.078705 
z"/>
<path fill="#7FD0FF" opacity="1.000000" stroke="none" 
	d="
M250.190277,412.818268 
	C232.860519,401.812561 215.820663,391.021118 198.780807,380.229706 
	C199.024887,379.839264 199.268951,379.448792 199.513016,379.058350 
	C205.175705,379.058350 210.870697,378.666779 216.495071,379.130890 
	C234.228317,380.594238 251.911896,382.709503 269.658203,383.950867 
	C289.733948,385.355133 309.854889,386.126160 329.960114,387.090057 
	C337.613739,387.456970 343.882660,384.578827 350.138824,379.990997 
	C355.354034,376.166565 362.210815,374.644165 368.186035,371.779938 
	C381.999420,365.158417 395.561493,357.992645 409.514465,351.687012 
	C429.525757,342.643524 449.553772,333.550385 470.010071,325.598572 
	C500.207123,313.860321 531.559509,305.901245 563.638184,301.438141 
	C591.552856,297.554443 619.670410,296.795929 647.850769,298.707794 
	C681.471252,300.988800 714.844238,305.150330 747.345459,314.097229 
	C770.430969,320.452179 793.296204,327.819916 815.822327,335.947937 
	C855.481689,350.258087 892.335327,370.400726 927.799988,393.008148 
	C954.492310,410.023529 979.971497,428.834381 1003.487610,450.039978 
	C1021.162292,465.978027 1038.461792,482.420807 1054.901245,499.620636 
	C1084.174683,530.248352 1110.331909,563.449829 1132.789429,599.448975 
	C1140.715942,612.155029 1148.353027,625.045410 1155.926636,637.966248 
	C1160.876099,646.410156 1160.512939,646.641479 1151.482422,650.065613 
	C1138.718140,654.905640 1125.706787,659.313843 1113.468506,665.276489 
	C1086.831177,678.254089 1060.521606,691.917297 1034.258789,705.645752 
	C1013.654053,716.416443 992.024902,724.599060 970.034302,731.849121 
	C948.702332,738.882080 927.428223,746.351013 905.659119,751.726868 
	C882.771057,757.379150 859.401794,761.243408 836.101929,765.020142 
	C815.098267,768.424561 793.918640,770.771545 772.788452,773.354980 
	C761.071594,774.787598 749.320007,776.338806 737.543762,776.794006 
	C716.745483,777.597961 695.912659,778.024048 675.101196,777.838501 
	C649.629272,777.611389 624.165222,776.561462 598.696350,775.924377 
	C570.230347,775.212341 541.762207,774.589294 513.296387,773.871826 
	C505.643097,773.679016 497.993011,773.322754 490.346252,772.944702 
	C489.010620,772.878662 487.698853,772.329651 486.195190,771.959167 
	C486.606140,770.823914 486.637695,770.234558 486.948334,769.950684 
	C501.918091,756.273621 500.855865,735.220459 492.148254,719.426636 
	C484.453491,705.469910 473.588135,694.346191 461.798645,683.932251 
	C432.053101,657.657227 396.391724,641.495911 361.205536,624.361206 
	C344.925201,616.433105 329.186737,607.257507 313.756104,597.749329 
	C287.112030,581.331604 260.514862,564.781555 234.605927,547.241455 
	C203.574219,526.233276 173.538879,503.798370 147.803024,476.253784 
	C141.335251,469.331451 135.409729,461.894897 129.365204,454.586945 
	C123.995132,448.094391 123.021507,440.061798 122.054131,432.109406 
	C121.572662,428.151428 121.363869,424.150238 121.252052,420.162445 
	C121.209557,418.646912 121.785049,417.114075 122.268753,414.603607 
	C127.768600,419.439697 132.497086,423.532837 137.155075,427.704712 
	C156.256592,444.812653 178.552582,457.269257 200.028564,470.917267 
	C216.469467,481.365417 232.460953,492.647766 249.525528,501.958740 
	C277.421326,517.179626 305.827148,531.510010 334.401367,545.428589 
	C355.185120,555.552307 376.239349,565.309937 397.796326,573.612305 
	C429.338806,585.760376 461.611176,595.892395 494.706909,603.125305 
	C520.551392,608.773499 546.248230,615.283264 572.293152,619.770081 
	C593.713989,623.460205 615.542419,624.811707 637.203979,627.067444 
	C655.375366,628.959717 673.492615,627.782959 691.392517,624.612854 
	C706.055359,622.016113 717.994812,614.848389 723.898682,600.305908 
	C731.889343,580.623047 722.018555,559.564697 701.779907,552.157532 
	C692.823303,548.879578 683.606201,549.389648 674.591980,550.468262 
	C655.255737,552.782104 636.091919,551.608154 616.869019,549.534851 
	C585.360657,546.136597 554.450073,539.707947 523.695618,532.194031 
	C482.710327,522.180664 442.086639,510.909821 403.257477,494.338348 
	C378.946686,483.963043 355.270996,471.997986 331.769897,459.856781 
	C310.193024,448.709656 289.176270,436.468933 268.034576,424.494843 
	C261.965851,421.057709 256.319946,416.873993 250.190277,412.818268 
M839.036194,649.550964 
	C857.998596,634.692871 872.729797,616.756897 880.202759,592.591370 
	C884.605225,596.318909 887.997314,600.646851 892.014771,604.284119 
	C903.267334,614.471802 916.398071,616.938354 930.551880,611.806030 
	C938.721008,608.843872 944.760315,602.978760 947.019287,594.289856 
	C950.040649,582.668274 947.756409,571.788757 939.306641,563.295837 
	C934.011047,557.973206 927.445251,553.699280 920.915039,549.864807 
	C907.266724,541.850647 893.297302,534.258484 877.543762,531.141541 
	C851.638977,526.016235 826.542358,529.476013 802.129517,538.997986 
	C789.243164,544.024109 777.899780,551.562500 767.835693,560.946777 
	C763.394287,565.088074 760.540161,570.234558 763.136963,576.624756 
	C765.789001,583.150635 771.342529,584.888550 777.748230,584.878052 
	C779.568542,584.875122 781.427551,584.757324 783.201294,584.377136 
	C790.197144,582.877747 797.138062,581.111328 804.154541,579.723267 
	C809.051392,578.754517 814.038147,578.240540 818.984741,577.523438 
	C818.869446,579.411499 818.490784,580.166016 817.884155,580.607056 
	C804.226013,590.537231 797.472290,605.458923 790.410339,619.871887 
	C785.261536,630.380066 785.954346,641.495911 793.892273,650.829956 
	C800.754517,658.899109 810.159668,661.492065 820.135498,658.671204 
	C826.550537,656.857361 832.374207,652.951782 839.036194,649.550964 
z"/>
<path fill="#82D0FA" opacity="1.000000" stroke="none" 
	d="
M1046.064697,386.437927 
	C1051.666748,373.570251 1057.475098,360.897858 1063.442017,348.300537 
	C1064.063965,346.987457 1065.625122,346.119232 1066.750488,345.044617 
	C1067.658691,346.336060 1068.879028,347.508575 1069.423706,348.938477 
	C1072.535278,357.107330 1076.442017,364.674103 1082.956665,370.799774 
	C1091.553467,378.883179 1101.935669,382.290100 1113.355835,382.807281 
	C1118.972656,383.061707 1124.649902,382.508118 1130.270020,381.994293 
	C1134.390381,381.617584 1136.398315,382.486176 1136.175781,387.263306 
	C1135.165283,408.958740 1143.241699,426.505463 1160.706177,439.637024 
	C1164.800293,442.715454 1164.563477,444.147339 1159.669800,446.555176 
	C1148.606201,451.998901 1137.515991,457.379517 1128.615845,466.826538 
	C1112.748169,450.780029 1097.471069,434.142853 1081.443604,418.262970 
	C1070.267090,407.189453 1058.062134,397.153900 1046.064697,386.437927 
z"/>
<path fill="#82D1FD" opacity="1.000000" stroke="none" 
	d="
M362.495026,749.458862 
	C383.863861,754.097168 404.813904,758.716675 425.817505,763.078430 
	C430.845093,764.122559 434.797333,766.207092 437.958374,771.467957 
	C435.724335,771.681274 434.051514,771.956970 432.374786,771.983704 
	C407.403564,772.380920 382.422821,772.444763 357.462433,773.192139 
	C324.892822,774.167542 292.870483,778.910583 261.732849,788.849182 
	C256.305847,790.581360 254.781906,789.761292 254.257187,784.042603 
	C253.604019,776.924255 253.413971,769.764648 252.887070,762.632935 
	C252.373108,755.676514 251.837173,748.715088 251.020966,741.790039 
	C250.509872,737.453796 251.896347,735.986206 256.396362,735.883118 
	C279.814453,735.346924 302.903076,737.852905 325.823303,742.463928 
	C337.887390,744.890930 350.003357,747.060059 362.495026,749.458862 
z"/>
<path fill="#FDFEFF" opacity="1.000000" stroke="none" 
	d="
M838.749573,649.767395 
	C832.374207,652.951782 826.550537,656.857361 820.135498,658.671204 
	C810.159668,661.492065 800.754517,658.899109 793.892273,650.829956 
	C785.954346,641.495911 785.261536,630.380066 790.410339,619.871887 
	C797.472290,605.458923 804.226013,590.537231 817.884155,580.607056 
	C818.490784,580.166016 818.869446,579.411499 818.984741,577.523438 
	C814.038147,578.240540 809.051392,578.754517 804.154541,579.723267 
	C797.138062,581.111328 790.197144,582.877747 783.201294,584.377136 
	C781.427551,584.757324 779.568542,584.875122 777.748230,584.878052 
	C771.342529,584.888550 765.789001,583.150635 763.136963,576.624756 
	C760.540161,570.234558 763.394287,565.088074 767.835693,560.946777 
	C777.899780,551.562500 789.243164,544.024109 802.129517,538.997986 
	C826.542358,529.476013 851.638977,526.016235 877.543762,531.141541 
	C893.297302,534.258484 907.266724,541.850647 920.915039,549.864807 
	C927.445251,553.699280 934.011047,557.973206 939.306641,563.295837 
	C947.756409,571.788757 950.040649,582.668274 947.019287,594.289856 
	C944.760315,602.978760 938.721008,608.843872 930.551880,611.806030 
	C916.398071,616.938354 903.267334,614.471802 892.014771,604.284119 
	C887.997314,600.646851 884.605225,596.318909 880.202759,592.591370 
	C872.729797,616.756897 857.998596,634.692871 838.749573,649.767395 
z"/>
</svg>