<svg width="212" height="164" viewBox="0 0 212 164" fill="none" xmlns="http://www.w3.org/2000/svg">
<path d="M171.337 75.1337C172.642 77.0022 174.043 78.8119 175.231 80.752C177.433 84.3457 179.521 88.0092 181.627 91.6611C181.939 92.2038 182.23 92.4775 182.897 92.3128C183.462 92.1736 184.063 92.1514 184.649 92.1389C187.762 92.0729 190.882 91.8769 193.987 92.0099C198.09 92.1856 202.129 92.9381 205.956 94.4815C206.984 94.8957 207.933 95.678 208.702 96.4955C209.208 97.034 209.485 97.9171 209.585 98.6823C209.789 100.256 208.609 101.475 207.029 101.368C205.836 101.287 204.66 100.987 203.469 100.857C200.792 100.566 198.105 100.066 195.432 100.121C192.437 100.183 189.427 100.622 186.469 101.15C181.581 102.024 176.897 103.608 172.321 105.559C166.896 107.871 161.779 110.777 156.553 113.475C152.191 115.727 147.804 117.958 143.062 119.292C138.913 120.46 134.721 121.495 130.508 122.399C126.296 123.302 122.05 124.084 117.788 124.705C114.403 125.198 110.976 125.464 107.557 125.653C104.451 125.825 101.331 125.83 98.2187 125.778C93.4162 125.698 88.615 125.522 83.8143 125.357C80.2635 125.235 76.7154 125.025 73.1641 124.926C68.5577 124.797 63.9469 124.604 59.3422 124.683C53.8795 124.778 48.3877 125.025 43.1086 126.579C39.9002 127.524 36.7868 128.825 33.6924 130.114C31.0929 131.197 28.5694 132.467 26.0369 133.705C23.5929 134.9 21.5451 136.671 19.4516 138.373C17.5322 139.933 15.6382 141.532 13.6429 142.99C11.8604 144.293 9.83454 144.556 7.79292 143.617C5.8296 142.714 4.86108 140.379 5.42408 138.272C5.84984 136.679 6.82757 135.511 8.08888 134.502C11.9137 131.442 15.6477 128.263 19.5504 125.307C21.5885 123.763 23.881 122.545 26.1085 121.266C27.2489 120.612 27.3649 120.618 26.9918 119.374C25.8155 115.451 25.814 111.494 26.5643 107.504C26.7271 106.638 26.8474 105.762 26.9476 104.886C27.2777 101.999 29.2989 100.068 32.2188 100.07C36.5816 100.074 40.9386 100.263 45.2525 101.003C45.4305 101.033 45.6124 101.041 45.8524 100.907C45.2717 100.571 44.6805 100.251 44.112 99.8957C40.2688 97.4905 36.4579 95.0323 32.5824 92.6805C29.0797 90.5548 25.6932 88.2676 22.4509 85.7681C19.2058 83.2664 16.0368 80.6581 13.3303 77.572C11.6413 75.6462 10.0227 73.6173 8.668 71.4497C7.05303 68.8658 6.67044 65.9485 7.37295 62.9388C7.94986 60.4673 8.63232 58.0366 10.192 55.9636C11.0686 54.7987 12.0608 53.7676 13.3624 53.0513C13.6343 52.9017 13.8881 52.5093 13.9368 52.1956C14.5041 48.5409 16.8334 46.5631 20.2143 45.7028C23.8145 44.7866 27.495 44.6808 31.167 45.1566C34.1513 45.5433 37.1683 45.8838 40.0723 46.6292C43.3562 47.4721 46.7208 48.2018 49.709 49.9485C50.1427 50.202 50.3923 50.1013 50.685 49.7159C52.6769 47.0926 55.1353 44.9761 57.828 43.0997C60.9821 40.9018 64.349 39.1178 67.8914 37.6399C71.8753 35.9778 76.0279 34.9434 80.2638 34.1978C85.4707 33.2812 90.7193 32.9476 96.0005 33.0479C101.14 33.1455 106.202 33.8441 111.205 34.9961C117.366 36.4144 123.312 38.4521 129.064 41.086C133.843 43.2746 138.452 45.7642 142.867 48.6126C144.473 49.6486 146.028 50.7625 147.664 51.9061C147.882 52.149 148.02 52.3552 148.205 52.4997C149.459 53.4773 150.722 54.4434 151.985 55.4099C152.643 55.9133 153.306 56.4097 154.004 56.9413C155.77 58.5203 157.567 59.999 159.213 61.6307C161.572 63.9706 163.821 66.4221 166.141 68.8745C166.25 69.0704 166.317 69.232 166.423 69.3627C167.865 71.1469 169.308 72.9301 170.765 74.7027C170.912 74.8821 171.144 74.9917 171.337 75.1337ZM36.8762 60.86C37.736 61.426 38.5672 62.0425 39.4606 62.549C42.5732 64.3133 45.6673 66.117 48.8439 67.7595C52.3038 69.5485 55.7894 71.3116 59.3685 72.8404C65.085 75.2822 71.0657 76.9429 77.0996 78.4184C81.6274 79.5255 86.1781 80.4728 90.8168 80.9735C93.6469 81.279 96.4682 81.452 99.3149 81.1111C100.642 80.9521 101.999 80.877 103.318 81.36C106.297 82.4514 107.75 85.5544 106.574 88.4546C105.705 90.5975 103.947 91.6536 101.788 92.0362C99.1531 92.5034 96.4858 92.6768 93.8106 92.3979C90.6215 92.0655 87.4079 91.8664 84.2543 91.3227C80.4199 90.6615 76.6367 89.7023 72.8318 88.8701C67.9594 87.8043 63.2082 86.3114 58.5644 84.5213C55.3908 83.298 52.2911 81.8602 49.2313 80.3685C45.0245 78.3176 40.8426 76.206 36.7357 73.9632C34.2234 72.5913 31.8691 70.9288 29.4486 69.3893C26.2869 67.3782 23.0044 65.5428 20.1923 63.0219C19.5065 62.4072 18.8104 61.8041 18.0007 61.0915C17.9295 61.4614 17.8447 61.6873 17.851 61.9106C17.8674 62.4982 17.8982 63.0877 17.9691 63.671C18.1115 64.8427 18.2548 66.0263 19.0454 66.983C19.9353 68.0598 20.8077 69.1556 21.7599 70.1756C25.5488 74.2343 29.9706 77.5401 34.5392 80.6356C38.3536 83.2201 42.2693 85.6588 46.1919 88.0779C48.4636 89.4789 50.7806 90.831 53.1775 91.9992C58.3577 94.524 63.6078 96.9053 67.987 100.777C69.7227 102.311 71.3223 103.95 72.4551 106.007C73.7371 108.334 73.8935 111.436 71.6896 113.452C71.6439 113.494 71.6392 113.58 71.5787 113.748C71.8001 113.802 71.9932 113.883 72.1899 113.893C73.3156 113.949 74.4419 114.001 75.5686 114.029C79.7594 114.135 83.9506 114.227 88.1414 114.332C91.891 114.426 95.6399 114.581 99.3899 114.614C102.454 114.641 105.521 114.579 108.583 114.46C110.317 114.393 112.047 114.164 113.772 113.953C116.882 113.573 120.001 113.227 123.093 112.725C126.523 112.169 129.964 111.599 133.333 110.766C136.538 109.974 139.67 108.874 142.811 107.837C146.048 106.769 149.232 105.563 152.266 103.976C156.132 101.954 160.006 99.9403 163.927 98.028C165.729 97.1494 167.645 96.4999 169.524 95.7867C170.853 95.2822 170.907 95.2481 170.178 94.0039C169.063 92.1 167.939 90.2006 166.772 88.3284C163.466 83.0239 159.615 78.1317 155.305 73.6187C152.885 71.0843 150.338 68.6615 147.736 66.313C144.274 63.1884 140.522 60.4166 136.593 57.9094C131.372 54.5782 125.946 51.6102 120.107 49.5016C116.791 48.304 113.425 47.2183 110.026 46.2819C105.241 44.9636 100.328 44.3504 95.378 44.0143C91.2292 43.7326 87.0897 43.8443 82.9801 44.4166C78.2574 45.0742 73.6416 46.247 69.1959 47.9766C66.1843 49.1483 63.2357 50.4882 60.2896 51.8208C58.2354 52.7499 56.2388 53.8058 54.2052 54.7814C53.3255 55.2035 52.316 55.4278 51.5482 55.9913C50.6272 56.6673 49.7042 57.0914 48.5775 57.0374C45.6175 56.8953 42.6553 56.7817 39.6997 56.5748C37.087 56.3919 34.4836 56.0802 31.8729 55.8646C31.0448 55.7962 30.2064 55.8539 29.3727 55.8539C29.3368 55.9114 29.3009 55.969 29.2649 56.0265C31.7736 57.6166 34.2822 59.2067 36.8762 60.86ZM53.3086 110.416C51.5283 110.079 49.7445 109.759 47.9684 109.402C44.5941 108.722 41.1949 108.353 37.7472 108.432C37.0847 108.447 36.8806 108.663 36.9559 109.302C37.076 110.323 37.1549 111.348 37.2306 112.373C37.3082 113.424 37.3361 114.479 37.4323 115.528C37.5095 116.371 37.7339 116.492 38.5329 116.236C43.117 114.772 47.8314 114.073 52.6264 113.929C56.3011 113.819 59.9788 113.81 63.6552 113.751C63.902 113.747 64.1483 113.707 64.4772 113.675C64.0118 112.9 63.43 112.593 62.6898 112.439C59.5976 111.796 56.5133 111.116 53.3086 110.416Z" fill="#FDFEFF"/>
<path d="M153.967 56.9094C153.306 56.4098 152.643 55.9133 151.985 55.4099C150.722 54.4435 149.459 53.4773 148.205 52.4997C148.02 52.3552 147.882 52.149 147.712 51.9413C148.998 49.2709 150.24 46.602 151.612 44.0018C152.344 42.6135 153.357 41.3936 154.669 40.4694C154.848 40.3432 155.044 40.212 155.165 40.0365C156.283 38.4117 157.824 38.2987 159.543 38.7744C160.95 39.164 161.601 40.0871 161.762 41.5287C161.881 42.5881 162.213 43.6287 162.506 44.6619C162.826 45.7932 163.24 46.898 163.555 48.0305C163.75 48.7285 164.078 49.059 164.851 48.982C166.711 48.7967 168.534 48.4903 170.299 47.8427C172.549 47.0175 174.871 48.372 175.308 50.7426C175.618 52.4262 175.248 54.0681 174.891 55.6966C174.42 57.8413 174.668 58.3896 176.698 59.193C177.952 59.6889 179.223 60.1398 180.49 60.6023C182.784 61.44 183.855 63.4694 183.236 65.8256C182.962 66.8685 182.181 67.5411 181.38 68.1329C178.661 70.1401 175.91 72.1024 173.156 74.0617C172.62 74.4432 172.02 74.7343 171.393 75.1004C171.144 74.9917 170.912 74.8821 170.765 74.7028C169.308 72.9301 167.865 71.1469 166.423 69.3627C166.317 69.232 166.25 69.0704 166.181 68.8351C167.468 67.3945 169.1 66.6017 170.729 65.7995C171.45 65.4448 171.484 65.2338 170.882 64.7802C168.311 62.8452 167.122 60.2597 167.27 57.0629C167.303 56.359 167.007 56.231 166.401 56.2865C165.573 56.3622 164.738 56.4438 163.911 56.4063C162.229 56.3301 160.701 55.8281 159.435 54.637C158.476 53.7344 157.901 52.6195 157.443 51.4158C157.363 51.2051 157.183 51.0323 157.049 50.842C156.884 51.0004 156.654 51.1283 156.562 51.3218C155.684 53.178 154.829 55.0453 153.967 56.9094Z" fill="#EDDF67"/>
<path d="M165.014 30.9663C166.319 32.4839 166.588 34.1037 165.638 35.7517C164.891 37.0462 163.668 37.747 162.134 37.614C160.024 37.4312 158.764 36.1246 158.524 34.3454C158.257 32.3695 159.494 30.5128 161.329 30.0674C162.655 29.7458 163.907 30.0219 165.014 30.9663Z" fill="#EADF6C"/>
<path d="M190.788 61.285C189.068 62.8832 186.646 62.7895 185.379 61.1141C184.232 59.5964 184.51 57.4499 186.019 56.1821C187.612 54.8443 189.645 54.872 190.982 56.2496C192.245 57.5514 192.175 59.8049 190.788 61.285Z" fill="#EADF6B"/>
<path d="M178.205 46.5741C176.3 46.7361 175.157 45.5352 174.781 44.2297C174.379 42.8307 175.164 41.2613 176.649 40.4406C177.817 39.7956 179.751 40.114 180.62 41.1981C182.308 43.3041 181.19 45.7131 178.913 46.4349C178.704 46.501 178.481 46.5205 178.205 46.5741Z" fill="#EADF6B"/>
<path d="M36.8336 60.8287C34.2823 59.207 31.7736 57.6169 29.265 56.0268C29.3009 55.9692 29.3368 55.9117 29.3728 55.8542C30.2064 55.8542 31.0449 55.7965 31.8729 55.8648C34.4836 56.0805 37.087 56.3921 39.6997 56.5751C42.6553 56.782 45.6175 56.8956 48.5775 57.0376C49.7043 57.0917 50.6272 56.6676 51.5482 55.9916C52.316 55.4281 53.3255 55.2037 54.2052 54.7817C56.2388 53.806 58.2355 52.7501 60.2896 51.821C63.2357 50.4884 66.1843 49.1486 69.1959 47.9769C73.6416 46.2473 78.2574 45.0745 82.9801 44.4169C87.0897 43.8446 91.2293 43.7328 95.378 44.0145C100.328 44.3506 105.241 44.9638 110.026 46.2822C113.425 47.2186 116.791 48.3042 120.107 49.5019C125.946 51.6104 131.372 54.5785 136.593 57.9096C140.522 60.4169 144.274 63.1886 147.736 66.3133C150.338 68.6617 152.885 71.0846 155.305 73.6189C159.615 78.1319 163.466 83.0241 166.772 88.3286C167.939 90.2008 169.063 92.1002 170.178 94.0041C170.907 95.2483 170.853 95.2824 169.524 95.7869C167.645 96.5001 165.729 97.1497 163.927 98.0283C160.006 99.9405 156.132 101.954 152.266 103.977C149.232 105.564 146.048 106.769 142.811 107.838C139.67 108.874 136.538 109.975 133.333 110.767C129.964 111.6 126.523 112.169 123.093 112.725C120.001 113.227 116.882 113.573 113.772 113.954C112.047 114.165 110.317 114.393 108.583 114.46C105.521 114.579 102.454 114.642 99.3899 114.614C95.6399 114.581 91.891 114.426 88.1414 114.332C83.9506 114.227 79.7594 114.135 75.5686 114.03C74.4419 114.001 73.3156 113.949 72.1899 113.893C71.9932 113.883 71.8001 113.802 71.5787 113.748C71.6392 113.581 71.6439 113.494 71.6896 113.452C73.8935 111.437 73.7371 108.334 72.4552 106.007C71.3223 103.951 69.7227 102.312 67.987 100.777C63.6078 96.9056 58.3577 94.5242 53.1775 91.9994C50.7807 90.8312 48.4636 89.4792 46.1919 88.0782C42.2693 85.659 38.3536 83.2204 34.5392 80.6359C29.9707 77.5403 25.5488 74.2345 21.7599 70.1759C20.8077 69.1559 19.9353 68.0601 19.0454 66.9833C18.2548 66.0266 18.1115 64.843 17.9691 63.6712C17.8982 63.088 17.8675 62.4984 17.851 61.9108C17.8447 61.6875 17.9295 61.4616 18.0007 61.0917C18.8104 61.8043 19.5065 62.4074 20.1923 63.0222C23.0045 65.543 26.2869 67.3785 29.4487 69.3895C31.8691 70.929 34.2234 72.5915 36.7357 73.9635C40.8426 76.2063 45.0246 78.3178 49.2313 80.3687C52.2912 81.8605 55.3908 83.2982 58.5645 84.5216C63.2082 86.3116 67.9594 87.8045 72.8319 88.8703C76.6367 89.7026 80.4199 90.6618 84.2543 91.3229C87.4079 91.8666 90.6215 92.0658 93.8106 92.3982C96.4858 92.677 99.1531 92.5036 101.788 92.0365C103.947 91.6539 105.705 90.5977 106.574 88.4549C107.75 85.5546 106.297 82.4517 103.318 81.3602C101.999 80.8772 100.642 80.9524 99.3149 81.1113C96.4682 81.4523 93.6469 81.2793 90.8168 80.9738C86.1781 80.4731 81.6274 79.5258 77.0996 78.4186C71.0657 76.9432 65.085 75.2824 59.3685 72.8406C55.7894 71.3118 52.3038 69.5488 48.8439 67.7598C45.6673 66.1172 42.5732 64.3136 39.4607 62.5492C38.5672 62.0427 37.736 61.4263 36.8336 60.8287ZM123.525 95.7111C126.316 93.5218 128.485 90.8789 129.585 87.3181C130.234 87.8674 130.733 88.5051 131.324 89.0411C132.981 90.5422 134.914 90.9057 136.998 90.1494C138.201 89.7129 139.09 88.8487 139.422 87.5684C139.867 85.856 139.531 84.2529 138.287 83.0015C137.507 82.2172 136.541 81.5874 135.579 81.0224C133.57 79.8415 131.513 78.7228 129.194 78.2635C125.38 77.5083 121.685 78.0181 118.091 79.4212C116.194 80.1618 114.524 81.2726 113.042 82.6553C112.389 83.2655 111.968 84.0239 112.351 84.9655C112.741 85.9271 113.559 86.1831 114.502 86.1816C114.77 86.1812 115.044 86.1638 115.305 86.1078C116.335 85.8868 117.356 85.6266 118.389 85.422C119.11 85.2793 119.845 85.2036 120.573 85.0979C120.556 85.3761 120.5 85.4873 120.411 85.5523C118.4 87.0155 117.406 89.2142 116.366 91.3379C115.608 92.8863 115.71 94.5242 116.879 95.8996C117.889 97.0886 119.274 97.4706 120.742 97.055C121.687 96.7877 122.544 96.2122 123.525 95.7111Z" fill="#7FD0FF"/>
<path d="M154.004 56.9416C154.829 55.0455 155.684 53.1783 156.562 51.322C156.654 51.1286 156.884 51.0006 157.049 50.8423C157.183 51.0326 157.363 51.2053 157.443 51.416C157.901 52.6197 158.476 53.7347 159.435 54.6373C160.701 55.8284 162.229 56.3304 163.911 56.4066C164.738 56.4441 165.573 56.3625 166.401 56.2868C167.007 56.2313 167.303 56.3593 167.27 57.0632C167.122 60.26 168.311 62.8455 170.882 64.7804C171.484 65.234 171.45 65.445 170.729 65.7998C169.1 66.6019 167.468 67.3948 166.157 68.7868C163.821 66.4223 161.572 63.9709 159.213 61.631C157.567 59.9993 155.77 58.5206 154.004 56.9416Z" fill="#82D0FA"/>
<path d="M53.3673 110.432C56.5133 111.116 59.5976 111.796 62.6898 112.439C63.43 112.593 64.0118 112.9 64.4772 113.675C64.1483 113.707 63.902 113.747 63.6552 113.751C59.9789 113.81 56.3011 113.819 52.6264 113.929C47.8314 114.073 43.117 114.772 38.5329 116.236C37.7339 116.492 37.5096 116.371 37.4323 115.528C37.3361 114.479 37.3082 113.424 37.2306 112.373C37.1549 111.348 37.076 110.323 36.9559 109.302C36.8806 108.663 37.0847 108.447 37.7472 108.432C41.1949 108.353 44.5941 108.722 47.9684 109.402C49.7445 109.759 51.5283 110.079 53.3673 110.432Z" fill="#82D1FD"/>
<path d="M123.483 95.7428C122.544 96.212 121.687 96.7875 120.742 97.0547C119.274 97.4704 117.889 97.0883 116.879 95.8993C115.71 94.524 115.608 92.886 116.366 91.3377C117.406 89.2139 118.4 87.0152 120.411 85.552C120.5 85.487 120.556 85.3759 120.573 85.0976C119.845 85.2033 119.11 85.279 118.389 85.4218C117.356 85.6263 116.335 85.8866 115.305 86.1075C115.044 86.1636 114.77 86.1809 114.502 86.1813C113.559 86.1829 112.741 85.9268 112.351 84.9652C111.968 84.0236 112.389 83.2653 113.042 82.6551C114.524 81.2723 116.194 80.1615 118.091 79.4209C121.685 78.0179 125.38 77.5081 129.194 78.2633C131.513 78.7226 133.57 79.8413 135.579 81.0222C136.541 81.5872 137.507 82.2169 138.287 83.0012C139.531 84.2526 139.867 85.8557 139.422 87.5682C139.09 88.8485 138.201 89.7127 136.998 90.1492C134.914 90.9054 132.981 90.542 131.324 89.0408C130.733 88.5049 130.234 87.8672 129.585 87.3179C128.485 90.8787 126.316 93.5215 123.483 95.7428Z" fill="#FDFEFF"/>
</svg>
