<svg width="81" height="105" viewBox="0 0 81 105" fill="none" xmlns="http://www.w3.org/2000/svg">
<path d="M80.2938 51.0504C74.9805 45.4183 67.8961 41.5648 60.5165 40.0827C57.2695 39.1934 54.0225 38.6005 50.7755 38.3041C59.0406 28.522 57.5647 13.7007 47.8237 5.40078C38.0826 -2.89915 23.3234 -1.41702 15.0583 8.36504C6.79317 18.1471 8.26908 32.9684 18.0101 41.2684C19.7812 42.7505 21.5523 43.9362 23.3234 44.529V51.0504L18.6005 46.604C14.4679 42.4541 7.67872 42.4541 3.25097 46.604C-0.881599 50.754 -1.17678 57.2754 2.95578 61.4254L16.5342 77.4324C17.1246 81.5823 18.6005 85.4359 20.6668 88.993C22.1427 91.6608 24.209 94.3287 26.2753 96.4036V102.036C26.2753 103.814 27.456 105 29.2271 105H69.372C70.848 105 72.3239 103.518 72.3239 102.036V94.3287C77.9324 87.5109 80.8842 78.9145 80.8842 70.3181V53.1254C81.1794 51.9397 80.8842 51.3469 80.2938 51.0504ZM15.3535 23.1864C15.3535 13.4043 23.3234 5.69721 33.0645 5.99363C42.8055 5.99363 50.4803 13.9971 50.1851 23.7792C50.1851 29.1149 47.8237 33.8577 43.6911 37.1184V22.2971C43.5404 19.7282 42.4168 17.3145 40.5507 15.5508C38.6846 13.7871 36.2174 12.807 33.6549 12.8114C28.3416 12.515 23.6186 16.9614 23.6186 22.2971V37.7112C18.6005 34.747 15.6487 29.1149 15.3535 23.1864ZM75.2757 70.0217C75.5709 77.7288 72.9142 85.1395 67.8961 91.068C67.3058 91.6608 66.7154 92.2537 66.7154 93.143V99.3679H32.4741V95.2179C32.4741 94.3287 31.8838 93.4394 31.2934 92.8465C29.2271 91.068 27.456 88.993 25.9801 86.3252C24.209 83.3609 23.0283 79.8038 22.4379 76.2467C22.4379 75.6538 22.1427 75.061 21.8475 74.4681L7.67872 57.5718C6.79317 56.6825 6.2028 55.4968 6.2028 54.0147C6.2028 52.829 6.79317 51.3469 7.67872 50.4576C9.745 48.679 12.6968 48.679 14.7631 50.4576L23.3234 59.0539V67.9467L28.9319 64.9825V22.2971C29.2271 20.2221 30.9982 18.4435 33.3597 18.74C35.426 18.74 37.4922 20.2221 37.4922 22.2971V56.3861L43.3959 57.5718V43.9362C43.6911 43.6398 43.9863 43.6398 44.2815 43.3433C46.3477 43.3433 48.414 43.6398 50.4803 43.9362V59.0539L55.2032 59.9432V44.529L58.7454 45.4183C60.2214 45.7148 61.6973 46.3076 63.1732 46.9005V61.7218L67.8961 62.6111V48.9754C70.5528 50.1612 72.9142 51.9397 74.9805 54.0147L75.2757 70.0217Z" fill="#7ED0FF"/>
</svg>
