<svg width="26" height="30" viewBox="0 0 26 30" fill="none" xmlns="http://www.w3.org/2000/svg">
<path d="M10.5728 5.48404C10.5771 5.62061 10.5539 5.75664 10.5046 5.88407C10.4553 6.0115 10.3809 6.12772 10.2858 6.22584C10.1907 6.32396 10.0768 6.40197 9.95103 6.45524C9.82521 6.50852 9.68996 6.53597 9.55333 6.53597C9.41669 6.53597 9.28144 6.50852 9.15562 6.45524C9.0298 6.40197 8.91596 6.32396 8.82087 6.22584C8.72578 6.12772 8.65137 6.0115 8.60206 5.88407C8.55275 5.75664 8.52955 5.62061 8.53383 5.48404C8.54212 5.21918 8.65317 4.96794 8.84346 4.78352C9.03374 4.5991 9.28833 4.49597 9.55333 4.49597C9.81832 4.49597 10.0729 4.5991 10.2632 4.78352C10.4535 4.96794 10.5645 5.21918 10.5728 5.48404Z" fill="#7ED0FF"/>
<path d="M16.5078 0.77807C18.6434 -0.00439286 20.9495 -0.201198 23.1868 0.20807H23.1928L23.5628 0.27807C25.0658 0.56307 25.6848 2.39207 24.6248 3.51607C23.9678 4.21607 23.4128 4.99907 22.9648 5.84207C24.2118 7.72607 24.9548 9.95907 24.9628 12.3581V12.3741C24.8608 20.2011 18.8858 24.9261 12.1328 24.9061H12.0858C11.4448 24.9061 10.7608 24.9061 10.0658 24.8291V25.1411C10.0668 27.9951 7.49282 29.6401 5.00982 29.6401C4.7446 29.6401 4.49025 29.5347 4.30271 29.3472C4.11518 29.1596 4.00982 28.9053 4.00982 28.6401V24.6631C4.00982 23.8451 4.25582 23.2091 4.63282 22.7101C4.97282 22.2601 5.39782 21.9581 5.67082 21.7641L5.69982 21.7431C5.80282 21.6691 5.87782 21.6151 5.94382 21.5631L5.95182 21.5581C5.79474 21.3221 5.62377 21.0957 5.43982 20.8801L5.37682 20.8031C4.86182 20.1751 4.00982 19.1371 4.00982 17.8151V14.5301C4.00982 14.2171 4.08782 13.8841 4.30182 13.5971C4.48821 13.3494 4.75002 13.169 5.04782 13.0831C5.39 12.9886 5.75191 12.9927 6.09182 13.0951C8.44382 13.5311 10.0668 15.7891 10.0668 18.1001V19.0901C10.3768 19.0211 10.7348 18.8901 11.1278 18.6771C11.9443 18.2273 12.6555 17.6086 13.2138 16.8621C13.5678 16.3831 13.8258 15.8871 13.9698 15.4001C13.9307 15.4199 13.8903 15.4369 13.8488 15.4511C13.6188 15.5311 13.3788 15.5161 13.1838 15.4691C12.9794 15.421 12.7885 15.3269 12.6258 15.1941C11.5868 14.3211 11.0628 13.1541 10.7958 11.8741C10.3586 11.8236 9.92008 11.7843 9.48082 11.7561C7.68082 11.6371 5.56382 11.6381 3.56482 11.6391H3.05982C2.62239 11.6451 2.18941 11.5506 1.79428 11.3628C1.39915 11.175 1.05242 10.899 0.780821 10.5561C0.280821 9.93307 0.0408213 9.14607 0.00482133 8.39807C-0.0311787 7.65107 0.132821 6.85207 0.550821 6.19107C0.983821 5.50607 1.69082 4.97907 2.64382 4.88207C2.76382 4.87007 2.90982 4.86307 3.03382 4.85807L3.05182 4.85707C3.21682 4.84907 3.38082 4.84207 3.54182 4.82707C3.62182 4.82007 3.69282 4.81107 3.75782 4.80207C3.89482 3.46507 4.62782 2.31007 5.61382 1.48707C6.7595 0.537952 8.19908 0.0159121 9.68682 0.0100699H12.7068C12.7738 0.0100699 12.8388 0.0170699 12.9018 0.0300699C14.1508 0.10407 15.3638 0.36407 16.5078 0.77807ZM10.5518 9.83807C10.5315 9.43903 10.5191 9.03961 10.5148 8.64007H2.04482C2.09079 8.88145 2.19173 9.109 2.33982 9.30507C2.42407 9.41466 2.5335 9.50233 2.65884 9.56065C2.78417 9.61897 2.92172 9.64621 3.05982 9.64007H3.58482C5.56082 9.63907 7.73982 9.63807 9.61282 9.76207C9.93282 9.78207 10.2468 9.80807 10.5528 9.83707L10.5518 9.83807ZM10.5098 7.64007C10.5098 7.06407 10.8648 6.68207 11.2518 6.46507C11.6278 6.25407 12.0848 6.16207 12.4828 6.14107C13.0488 6.11107 13.6898 6.32307 14.1488 6.63307C14.3798 6.78907 14.6048 6.99607 14.7418 7.25307C14.8848 7.52007 14.9358 7.85307 14.7818 8.18307C14.7385 8.29364 14.6971 8.40499 14.6578 8.51707C15.5408 8.98507 16.2898 9.67707 16.7718 10.6721C17.3742 11.8962 17.4927 13.3024 17.1038 14.6101C16.7488 15.8331 15.9628 17.0771 14.6498 18.2761C13.9439 19.16 13.0697 19.8952 12.0778 20.4391C11.0838 20.9751 9.91082 21.3121 8.84182 21.0661C8.62141 21.0152 8.42476 20.891 8.284 20.714C8.14324 20.5369 8.06668 20.3173 8.06682 20.0911V18.1011C8.06682 16.7351 7.16282 15.4991 6.00982 15.1341V17.8141C6.00982 18.3541 6.37782 18.8671 6.98882 19.6141L7.00882 19.6391C7.20482 19.8791 7.43682 20.1631 7.61582 20.4471C7.79582 20.7311 8.00982 21.1461 8.00982 21.6401C8.00982 22.1621 7.77582 22.5511 7.52982 22.8201C7.32382 23.0421 7.06482 23.2261 6.89082 23.3501L6.86082 23.3711C6.56082 23.5851 6.36882 23.7311 6.22782 23.9161C6.11382 24.0681 6.00982 24.2811 6.00982 24.6631V27.5131C7.24782 27.1841 8.06682 26.2501 8.06682 25.1411V23.6241C8.06693 23.4694 8.10292 23.3169 8.17194 23.1785C8.24097 23.0401 8.34115 22.9196 8.46462 22.8265C8.58809 22.7333 8.73147 22.6701 8.88351 22.6417C9.03555 22.6134 9.19208 22.6207 9.34082 22.6631C10.1638 22.8981 11.0398 22.9061 12.1348 22.9061H12.1378C17.9218 22.9241 22.8728 18.9561 22.9628 12.3561C22.9538 10.1971 22.2248 8.18707 20.9998 6.51807C20.8936 6.37342 20.8283 6.20286 20.8107 6.02428C20.7931 5.84569 20.8239 5.66566 20.8998 5.50307C21.458 4.30394 22.1981 3.19824 23.0938 2.22507L22.8268 2.17507H22.8238C20.826 1.81052 18.7659 2.01924 16.8818 2.77707C16.6441 2.87228 16.3788 2.87264 16.1408 2.77807C15.0299 2.3351 13.8533 2.07898 12.6588 2.02007C12.6274 2.01854 12.596 2.01553 12.5648 2.01107H9.68682C8.66816 2.0168 7.68269 2.37391 6.89682 3.02207C6.15682 3.64107 5.73882 4.43407 5.73482 5.24207C5.73923 5.45791 5.69219 5.67171 5.5976 5.86577C5.503 6.05983 5.36357 6.22858 5.19082 6.35807C4.95659 6.52954 4.68927 6.65043 4.40582 6.71307C3.97882 6.81807 3.48182 6.84007 3.17882 6.85407L3.14382 6.85607C3.04404 6.85946 2.94435 6.86513 2.84482 6.87307C2.57782 6.90007 2.38782 7.02907 2.24082 7.26107C2.16824 7.379 2.1127 7.5066 2.07582 7.64007H10.5098ZM14.3598 9.49707C14.2498 9.92507 14.1728 10.3361 14.1208 10.7271C14.1498 10.7441 14.1778 10.7621 14.2048 10.7801C14.2414 10.8038 14.2761 10.8302 14.3088 10.8591C15.5228 11.9131 16.0838 13.1721 16.1018 14.4691L16.1438 14.3311C16.4638 13.2611 16.367 12.1096 15.8728 11.1081C15.5308 10.4051 15.0068 9.87807 14.3598 9.49707ZM12.5368 7.14007C12.2308 7.15707 11.9388 7.22707 11.7408 7.33807C11.5538 7.44307 11.5098 7.54207 11.5098 7.64207C11.5098 9.10007 11.5268 10.4491 11.7658 11.6251C12.0018 12.7911 12.4458 13.7391 13.2688 14.4301C13.3232 14.4682 13.3854 14.4938 13.4508 14.5051C13.44 14.4385 13.4226 14.3732 13.3988 14.3101C12.9148 12.9621 12.7888 10.5561 13.8558 7.80407L13.8648 7.78307L13.8748 7.76207C13.8714 7.74947 13.8664 7.73737 13.8598 7.72607C13.7906 7.6187 13.698 7.52843 13.5888 7.46207C13.2788 7.25307 12.8498 7.12307 12.5368 7.14007Z" fill="#7ED0FF"/>
</svg>
