<svg width="37" height="46" viewBox="0 0 37 46" fill="none" xmlns="http://www.w3.org/2000/svg">
<path d="M37 0H27.75V3.06667H9.25V0H0V46H9.25V42.9333H27.75V46H37V0ZM6.16667 3.06667V6.13333H3.08333V3.06667H6.16667ZM33.9167 3.06667V6.13333H30.8333V3.06667H33.9167ZM27.75 6.13333V21.4667H9.25V6.13333H27.75ZM6.16667 9.2V12.2667H3.08333V9.2H6.16667ZM33.9167 9.2V12.2667H30.8333V9.2H33.9167ZM6.16667 15.3333V18.4H3.08333V15.3333H6.16667ZM33.9167 15.3333V18.4H30.8333V15.3333H33.9167ZM6.16667 21.4667V24.5333H3.08333V21.4667H6.16667ZM33.9167 21.4667V24.5333H30.8333V21.4667H33.9167ZM27.75 24.5333V39.8667H9.25V24.5333H27.75ZM6.16667 27.6V30.6667H3.08333V27.6H6.16667ZM33.9167 27.6V30.6667H30.8333V27.6H33.9167ZM6.16667 33.7333V36.8H3.08333V33.7333H6.16667ZM33.9167 33.7333V36.8H30.8333V33.7333H33.9167ZM6.16667 39.8667V42.9333H3.08333V39.8667H6.16667ZM33.9167 39.8667V42.9333H30.8333V39.8667H33.9167Z" fill="white"/>
</svg>
