<svg width="28" height="36" viewBox="0 0 28 36" fill="none" xmlns="http://www.w3.org/2000/svg">
<path d="M27.2013 17.222C25.4013 15.322 23.0013 14.022 20.5013 13.522C19.4013 13.222 18.3013 13.022 17.2013 12.922C20.0013 9.62196 19.5013 4.62196 16.2013 1.82196C12.9013 -0.978035 7.90134 -0.478035 5.10134 2.82196C2.30134 6.12196 2.80134 11.122 6.10134 13.922C6.70134 14.422 7.30134 14.822 7.90134 15.022V17.222L6.30134 15.722C4.90134 14.322 2.60134 14.322 1.10134 15.722C-0.298662 17.122 -0.398662 19.322 1.00134 20.722L5.60134 26.122C5.80134 27.522 6.30134 28.822 7.00134 30.022C7.50134 30.922 8.20134 31.822 8.90134 32.522V34.422C8.90134 35.022 9.30134 35.422 9.90134 35.422H23.5013C24.0013 35.422 24.5013 34.922 24.5013 34.422V31.822C26.4013 29.522 27.4013 26.622 27.4013 23.722V17.922C27.5013 17.522 27.4013 17.322 27.2013 17.222ZM5.20134 7.82196C5.20134 4.52196 7.90134 1.92196 11.2013 2.02196C14.5013 2.02196 17.1013 4.72196 17.0013 8.02196C17.0013 9.82196 16.2013 11.422 14.8013 12.522V7.52196C14.7503 6.65534 14.3696 5.84107 13.7375 5.24608C13.1053 4.65109 12.2695 4.32046 11.4013 4.32196C9.60134 4.22196 8.00134 5.72196 8.00134 7.52196V12.722C6.30134 11.722 5.30134 9.82196 5.20134 7.82196ZM25.5013 23.622C25.6013 26.222 24.7013 28.722 23.0013 30.722C22.8013 30.922 22.6013 31.122 22.6013 31.422V33.522H11.0013V32.122C11.0013 31.822 10.8013 31.522 10.6013 31.322C9.90134 30.722 9.30134 30.022 8.80134 29.122C8.20134 28.122 7.80134 26.922 7.60134 25.722C7.60134 25.522 7.50134 25.322 7.40134 25.122L2.60134 19.422C2.30134 19.122 2.10134 18.722 2.10134 18.222C2.10134 17.822 2.30134 17.322 2.60134 17.022C3.30134 16.422 4.30134 16.422 5.00134 17.022L7.90134 19.922V22.922L9.80134 21.922V7.52196C9.90134 6.82196 10.5013 6.22196 11.3013 6.32196C12.0013 6.32196 12.7013 6.82196 12.7013 7.52196V19.022L14.7013 19.422V14.822C14.8013 14.722 14.9013 14.722 15.0013 14.622C15.7013 14.622 16.4013 14.722 17.1013 14.822V19.922L18.7013 20.222V15.022L19.9013 15.322C20.4013 15.422 20.9013 15.622 21.4013 15.822V20.822L23.0013 21.122V16.522C23.9013 16.922 24.7013 17.522 25.4013 18.222L25.5013 23.622Z" fill="white"/>
</svg>
