<svg width="41" height="35" viewBox="0 0 41 35" fill="none" xmlns="http://www.w3.org/2000/svg">
<path d="M26.65 26.25C27.2308 26.25 27.7181 26.04 28.1117 25.62C28.5053 25.2 28.7014 24.6808 28.7 24.0625V21.875H30.75C31.3308 21.875 31.818 21.665 32.2116 21.245C32.6052 20.825 32.8014 20.3058 32.8 19.6875C32.8 19.0677 32.6032 18.5478 32.2096 18.1278C31.816 17.7078 31.3295 17.4985 30.75 17.5H28.7V15.3125C28.7 14.6927 28.5032 14.1728 28.1096 13.7528C27.716 13.3328 27.2295 13.1235 26.65 13.125C26.0692 13.125 25.5819 13.335 25.1884 13.755C24.7948 14.175 24.5986 14.6942 24.6 15.3125V17.5H22.55C21.9692 17.5 21.482 17.71 21.0884 18.13C20.6947 18.55 20.4986 19.0692 20.5 19.6875C20.5 20.3073 20.6968 20.8272 21.0904 21.2472C21.484 21.6672 21.9705 21.8765 22.55 21.875H24.6V24.0625C24.6 24.6823 24.7968 25.2022 25.1904 25.6222C25.584 26.0422 26.0705 26.2515 26.65 26.25ZM4.1 35C2.9725 35 2.00695 34.5712 1.20335 33.7137C0.399753 32.8562 -0.00136319 31.8267 3.48048e-06 30.625V4.375C3.48048e-06 3.17188 0.401803 2.14157 1.2054 1.28407C2.009 0.426566 2.97387 -0.00145462 4.1 3.71392e-06H14.7088C15.2554 3.71392e-06 15.7768 0.109379 16.2729 0.328129C16.769 0.546879 17.2043 0.856774 17.5788 1.25782L20.5 4.375H36.9C38.0275 4.375 38.993 4.80375 39.7966 5.66125C40.6003 6.51875 41.0014 7.54834 41 8.75V30.625C41 31.8281 40.5982 32.8584 39.7946 33.7159C38.991 34.5734 38.0261 35.0015 36.9 35H4.1Z" fill="white"/>
</svg>
