<svg width="42" height="44" viewBox="0 0 42 44" fill="none" xmlns="http://www.w3.org/2000/svg">
<path d="M38.5 5.5H3.5C1.5925 5.57333 0.07 7.16833 0 9.16667V34.8333C0.07 36.8317 1.5925 38.4267 3.5 38.5H38.5C40.4075 38.4267 41.93 36.8317 42 34.8333V9.16667C41.9678 8.20495 41.5887 7.2918 40.9392 6.61134C40.2896 5.93088 39.418 5.53374 38.5 5.5ZM38.5 34.8333H3.5V9.16667H38.5V34.8333ZM24.5 31.1667V28.875C24.5 25.8317 18.655 24.2917 15.75 24.2917C12.845 24.2917 7 25.8317 7 28.875V31.1667H24.5ZM15.75 12.8333C14.5897 12.8333 13.4769 13.3162 12.6564 14.1758C11.8359 15.0353 11.375 16.2011 11.375 17.4167C11.375 18.0186 11.4882 18.6146 11.708 19.1706C11.9279 19.7267 12.2502 20.232 12.6564 20.6576C13.4769 21.5171 14.5897 22 15.75 22C16.3245 22 16.8934 21.8814 17.4242 21.6511C17.955 21.4208 18.4373 21.0832 18.8436 20.6576C19.2498 20.232 19.5721 19.7267 19.792 19.1706C20.0118 18.6146 20.125 18.0186 20.125 17.4167C20.125 16.8148 20.0118 16.2188 19.792 15.6627C19.5721 15.1066 19.2498 14.6014 18.8436 14.1758C18.4373 13.7502 17.955 13.4126 17.4242 13.1822C16.8934 12.9519 16.3245 12.8333 15.75 12.8333ZM24.5 12.8333V14.6667H35V12.8333H24.5ZM24.5 16.5V18.3333H35V16.5H24.5ZM24.5 20.1667V22H31.5V20.1667H24.5Z" fill="white"/>
</svg>
