<svg version="1.1" id="Layer_1" xmlns="http://www.w3.org/2000/svg" xmlns:xlink="http://www.w3.org/1999/xlink" x="0px" y="0px"
	 width="100%" viewBox="0 0 1440 1113" enable-background="new 0 0 1440 1113" xml:space="preserve">
<path fill="#FFFFFF" opacity="1.000000" stroke="none" 
	d="
M970.000000,1114.000000 
	C646.666687,1114.000000 323.833344,1114.000000 1.000000,1114.000000 
	C1.000000,743.000000 1.000000,372.000000 1.000000,1.000000 
	C481.000000,1.000000 961.000000,1.000000 1441.000000,1.000000 
	C1441.000000,372.000000 1441.000000,743.000000 1441.000000,1114.000000 
	C1284.166626,1114.000000 1127.333374,1114.000000 970.000000,1114.000000 
M1164.557007,508.939392 
	C1168.871216,506.520752 1173.439941,504.459076 1177.443481,501.604675 
	C1184.468506,496.595978 1190.996338,490.891510 1198.005737,485.859100 
	C1209.064331,477.919647 1220.333008,470.271942 1231.543823,462.546082 
	C1237.574829,458.389832 1242.695312,453.377380 1244.711548,446.184082 
	C1249.092407,430.554810 1241.465332,416.931580 1225.560059,411.181824 
	C1216.489380,407.902771 1207.374268,404.718628 1198.443848,401.086761 
	C1187.327026,396.565735 1185.066895,392.378998 1187.039551,381.149750 
	C1187.986206,375.761017 1189.248291,370.428406 1190.250000,365.048523 
	C1191.878540,356.302582 1192.374146,347.526978 1189.240479,339.012146 
	C1184.077271,324.982758 1168.553101,319.367371 1152.930786,325.795197 
	C1141.346558,330.561523 1129.131958,331.592346 1116.824585,332.260803 
	C1113.990112,332.414734 1112.558960,331.236298 1111.815063,328.574890 
	C1110.519775,323.940247 1108.948120,319.383392 1107.615845,314.758423 
	C1104.228027,302.997620 1098.642578,291.830505 1098.279785,279.236176 
	C1098.210693,276.839050 1097.104736,274.397949 1096.151611,272.112915 
	C1091.767456,261.602661 1065.880615,256.286957 1056.948364,268.268707 
	C1054.899536,271.016968 1052.031494,273.170166 1049.459717,275.508423 
	C1047.003784,277.741272 1044.109985,279.574554 1041.980225,282.071106 
	C1024.355713,302.731201 1013.758057,327.232727 1003.285461,352.083130 
	C989.257507,342.626953 975.459229,332.806305 961.153687,323.790497 
	C931.452881,305.072083 900.388855,288.856506 868.244324,274.726013 
	C843.578857,263.883270 818.522278,253.980499 792.453552,247.139160 
	C768.890381,240.955353 745.196472,234.975342 721.244019,230.661041 
	C701.717834,227.143982 681.765991,225.343002 661.926025,224.402267 
	C643.182129,223.513519 624.294861,224.047974 605.550110,225.223404 
	C586.046875,226.446426 566.497803,228.320862 547.221008,231.459549 
	C515.857483,236.566269 485.152924,244.514801 455.875000,257.269409 
	C434.782806,266.457977 414.529144,277.198151 395.557098,290.229279 
	C376.017120,303.650482 358.014191,318.805573 343.666016,337.904083 
	C341.959747,340.175232 340.275452,340.639252 337.813995,338.715729 
	C336.010651,337.306458 333.725983,336.503876 331.634705,335.473846 
	C311.941559,325.774231 290.478882,321.349579 269.616180,315.314636 
	C256.965118,311.655060 243.606979,310.209808 230.469833,308.522034 
	C215.679459,306.621887 200.797653,304.707001 185.923401,304.409637 
	C173.385361,304.158997 160.675934,305.454803 148.278778,307.499512 
	C139.050552,309.021545 129.639999,311.711487 121.302231,315.869568 
	C105.587112,323.706726 96.819908,337.223572 94.019073,354.679657 
	C93.671684,356.844696 91.547226,358.986084 89.765785,360.612030 
	C83.668800,366.176727 76.670502,370.904114 71.275337,377.055389 
	C60.971886,388.802765 56.115593,403.413116 51.865044,418.222382 
	C44.277363,444.658600 47.131416,469.512817 62.776451,492.444519 
	C79.286224,516.643677 99.610001,537.432068 121.386879,556.831116 
	C143.234863,576.293518 166.707703,593.704407 190.919296,610.074524 
	C204.126129,619.004028 217.904770,627.087097 231.412491,635.572693 
	C252.644852,648.910889 273.851410,662.290222 295.104309,675.595581 
	C299.624115,678.425293 304.295776,681.012451 308.897491,683.711304 
	C307.275208,684.838745 306.009155,685.087769 304.790009,684.942627 
	C296.720551,683.982117 288.687561,682.460938 280.593323,682.011169 
	C258.697845,680.794373 236.778946,679.374329 214.866882,679.332825 
	C203.115646,679.310608 193.964294,685.925049 187.842117,696.316956 
	C183.374878,703.899841 182.665298,712.309326 181.642395,720.724854 
	C180.202911,732.567505 177.985321,744.345642 177.152603,756.225098 
	C175.842270,774.918335 177.577942,793.380493 183.588272,811.333862 
	C185.874451,818.162903 185.338501,818.160950 178.995514,821.663818 
	C166.793579,828.402405 154.257309,834.699829 142.766159,842.513306 
	C132.106201,849.761597 122.736099,858.883911 112.606697,866.940552 
	C93.122543,882.437622 73.489212,897.747070 53.944862,913.168640 
	C41.716805,922.817200 34.273354,934.891357 36.151974,951.037781 
	C37.327312,961.139648 42.298355,969.105469 51.462776,974.169495 
	C66.586578,982.526550 83.078285,978.226807 95.308167,968.986755 
	C103.381287,962.887268 110.914673,956.078430 118.808655,949.735168 
	C125.920273,944.020630 133.449738,938.803284 140.338913,932.839783 
	C152.209457,922.564636 164.861145,913.454834 178.924454,906.531311 
	C196.080383,898.085449 213.471649,890.115295 230.800705,882.024170 
	C253.440781,871.453308 276.760895,862.642761 301.105469,856.971863 
	C335.387848,848.986023 370.432709,847.332703 405.426575,846.163635 
	C424.699005,845.519897 444.035065,846.304077 463.328705,846.893799 
	C487.747467,847.640198 512.151489,848.862854 536.563354,849.843445 
	C553.835205,850.537292 571.107910,851.216431 588.383118,851.818420 
	C608.989441,852.536743 629.595825,853.596619 650.207642,853.744873 
	C694.768860,854.065491 739.393555,855.412109 783.713501,848.958618 
	C802.576355,846.211914 821.461182,843.548157 840.230164,840.244812 
	C857.213440,837.255920 874.012939,833.238098 890.963623,830.046326 
	C922.158691,824.172363 952.897156,816.536194 982.956787,806.348083 
	C1021.080627,793.426880 1056.120361,773.832092 1091.703125,755.441284 
	C1109.279053,746.357239 1126.427490,736.354614 1144.401001,728.151489 
	C1175.090454,714.144775 1206.114258,700.860596 1239.142944,692.952515 
	C1275.050415,684.355225 1311.007935,676.543823 1348.294434,680.929504 
	C1365.582397,682.962952 1382.806152,685.537292 1400.086060,687.645630 
	C1406.161011,688.386841 1412.420044,689.250305 1417.720215,684.668152 
	C1423.867188,679.353882 1425.898438,670.118164 1422.263184,661.846680 
	C1417.475586,650.953064 1408.570801,644.104614 1397.839111,640.312805 
	C1369.963379,630.463745 1341.213013,624.420288 1311.552002,624.114075 
	C1292.919922,623.921631 1274.275757,624.677856 1255.640625,625.148438 
	C1251.005859,625.265381 1246.255371,625.394653 1241.794556,626.485535 
	C1237.469360,627.543274 1235.740601,625.685974 1234.024170,622.382080 
	C1229.274414,613.239624 1224.771729,603.928894 1219.397461,595.158813 
	C1206.832642,574.653992 1193.913208,554.363403 1180.933960,534.116516 
	C1175.486206,525.618469 1169.523438,517.450562 1164.557007,508.939392 
M1100.783569,203.255417 
	C1088.040283,204.534103 1078.511353,213.221741 1076.581665,225.919647 
	C1075.183594,235.120316 1080.110840,247.364700 1090.334839,252.331009 
	C1105.071167,259.489258 1118.632690,253.667831 1124.833374,243.372360 
	C1136.405640,224.158066 1122.197754,202.051590 1100.783569,203.255417 
M1263.525146,418.986938 
	C1269.822266,423.710236 1276.783813,424.777130 1284.303955,422.758728 
	C1297.081909,419.329254 1306.159790,407.144135 1302.542847,392.011902 
	C1300.262085,382.469879 1290.981812,372.207550 1275.439819,375.267548 
	C1264.317261,377.457397 1257.740845,385.213379 1254.848389,395.469055 
	C1252.301514,404.499268 1255.755615,412.456024 1263.525146,418.986938 
M1224.750366,277.719879 
	C1224.057739,277.259583 1223.360596,276.805817 1222.673096,276.337921 
	C1213.852661,270.335480 1203.782471,270.884949 1195.103638,277.844421 
	C1187.569702,283.885864 1184.816528,294.762543 1188.452881,304.119293 
	C1191.603638,312.226410 1199.657837,316.585693 1210.622192,315.801178 
	C1220.352051,315.104950 1227.235840,309.909210 1230.657471,300.981323 
	C1233.917847,292.473938 1231.895996,284.655914 1224.750366,277.719879 
z"/>
<path fill="#80D0FE" opacity="1.000000" stroke="none" 
	d="
M1163.794800,509.132507 
	C1169.523438,517.450562 1175.486206,525.618469 1180.933960,534.116516 
	C1193.913208,554.363403 1206.832642,574.653992 1219.397461,595.158813 
	C1224.771729,603.928894 1229.274414,613.239624 1234.024170,622.382080 
	C1235.740601,625.685974 1237.469360,627.543274 1241.794556,626.485535 
	C1246.255371,625.394653 1251.005859,625.265381 1255.640625,625.148438 
	C1274.275757,624.677856 1292.919922,623.921631 1311.552002,624.114075 
	C1341.213013,624.420288 1369.963379,630.463745 1397.839111,640.312805 
	C1408.570801,644.104614 1417.475586,650.953064 1422.263184,661.846680 
	C1425.898438,670.118164 1423.867188,679.353882 1417.720215,684.668152 
	C1412.420044,689.250305 1406.161011,688.386841 1400.086060,687.645630 
	C1382.806152,685.537292 1365.582397,682.962952 1348.294434,680.929504 
	C1311.007935,676.543823 1275.050415,684.355225 1239.142944,692.952515 
	C1206.114258,700.860596 1175.090454,714.144775 1144.401001,728.151489 
	C1126.427490,736.354614 1109.279053,746.357239 1091.703125,755.441284 
	C1056.120361,773.832092 1021.080627,793.426880 982.956787,806.348083 
	C952.897156,816.536194 922.158691,824.172363 890.963623,830.046326 
	C874.012939,833.238098 857.213440,837.255920 840.230164,840.244812 
	C821.461182,843.548157 802.576355,846.211914 783.713501,848.958618 
	C739.393555,855.412109 694.768860,854.065491 650.207642,853.744873 
	C629.595825,853.596619 608.989441,852.536743 588.383118,851.818420 
	C571.107910,851.216431 553.835205,850.537292 536.563354,849.843445 
	C512.151489,848.862854 487.747467,847.640198 463.328705,846.893799 
	C444.035065,846.304077 424.699005,845.519897 405.426575,846.163635 
	C370.432709,847.332703 335.387848,848.986023 301.105469,856.971863 
	C276.760895,862.642761 253.440781,871.453308 230.800705,882.024170 
	C213.471649,890.115295 196.080383,898.085449 178.924454,906.531311 
	C164.861145,913.454834 152.209457,922.564636 140.338913,932.839783 
	C133.449738,938.803284 125.920273,944.020630 118.808655,949.735168 
	C110.914673,956.078430 103.381287,962.887268 95.308167,968.986755 
	C83.078285,978.226807 66.586578,982.526550 51.462776,974.169495 
	C42.298355,969.105469 37.327312,961.139648 36.151974,951.037781 
	C34.273354,934.891357 41.716805,922.817200 53.944862,913.168640 
	C73.489212,897.747070 93.122543,882.437622 112.606697,866.940552 
	C122.736099,858.883911 132.106201,849.761597 142.766159,842.513306 
	C154.257309,834.699829 166.793579,828.402405 178.995514,821.663818 
	C185.338501,818.160950 185.874451,818.162903 183.588272,811.333862 
	C177.577942,793.380493 175.842270,774.918335 177.152603,756.225098 
	C177.985321,744.345642 180.202911,732.567505 181.642395,720.724854 
	C182.665298,712.309326 183.374878,703.899841 187.842117,696.316956 
	C193.964294,685.925049 203.115646,679.310608 214.866882,679.332825 
	C236.778946,679.374329 258.697845,680.794373 280.593323,682.011169 
	C288.687561,682.460938 296.720551,683.982117 304.790009,684.942627 
	C306.009155,685.087769 307.275208,684.838745 308.897491,683.711304 
	C304.295776,681.012451 299.624115,678.425293 295.104309,675.595581 
	C273.851410,662.290222 252.644852,648.910889 231.412491,635.572693 
	C217.904770,627.087097 204.126129,619.004028 190.919296,610.074524 
	C166.707703,593.704407 143.234863,576.293518 121.386879,556.831116 
	C99.610001,537.432068 79.286224,516.643677 62.776451,492.444519 
	C47.131416,469.512817 44.277363,444.658600 51.865044,418.222382 
	C56.115593,403.413116 60.971886,388.802765 71.275337,377.055389 
	C76.670502,370.904114 83.668800,366.176727 89.765785,360.612030 
	C91.547226,358.986084 93.671684,356.844696 94.019073,354.679657 
	C96.819908,337.223572 105.587112,323.706726 121.302231,315.869568 
	C129.639999,311.711487 139.050552,309.021545 148.278778,307.499512 
	C160.675934,305.454803 173.385361,304.158997 185.923401,304.409637 
	C200.797653,304.707001 215.679459,306.621887 230.469833,308.522034 
	C243.606979,310.209808 256.965118,311.655060 269.616180,315.314636 
	C290.478882,321.349579 311.941559,325.774231 331.634705,335.473846 
	C333.725983,336.503876 336.010651,337.306458 337.813995,338.715729 
	C340.275452,340.639252 341.959747,340.175232 343.666016,337.904083 
	C358.014191,318.805573 376.017120,303.650482 395.557098,290.229279 
	C414.529144,277.198151 434.782806,266.457977 455.875000,257.269409 
	C485.152924,244.514801 515.857483,236.566269 547.221008,231.459549 
	C566.497803,228.320862 586.046875,226.446426 605.550110,225.223404 
	C624.294861,224.047974 643.182129,223.513519 661.926025,224.402267 
	C681.765991,225.343002 701.717834,227.143982 721.244019,230.661041 
	C745.196472,234.975342 768.890381,240.955353 792.453552,247.139160 
	C818.522278,253.980499 843.578857,263.883270 868.244324,274.726013 
	C900.388855,288.856506 931.452881,305.072083 961.153687,323.790497 
	C975.459229,332.806305 989.257507,342.626953 1003.808105,352.404175 
	C1005.457336,353.900757 1006.460327,355.234772 1007.730896,356.225677 
	C1015.185059,362.039001 1022.675110,367.807129 1030.206055,373.520599 
	C1035.445190,377.495270 1040.769409,381.357910 1046.083496,385.589722 
	C1055.320923,394.221375 1064.766479,402.289490 1073.683838,410.904449 
	C1086.703491,423.482727 1099.356201,436.441406 1112.139893,449.263336 
	C1117.718994,454.859100 1123.235229,460.517700 1128.862793,466.491272 
	C1129.591919,467.968933 1130.091309,469.223785 1130.907715,470.218567 
	C1138.886597,479.941772 1146.881348,489.652496 1154.955078,499.296997 
	C1157.782837,502.674927 1160.841553,505.859589 1163.794800,509.132507 
M968.034790,421.473480 
	C954.783325,412.035034 942.019348,401.797455 928.166138,393.345245 
	C907.335144,380.635681 886.114685,368.439453 864.355408,357.415588 
	C846.606323,348.423462 827.982971,341.069702 809.450012,333.741211 
	C795.734985,328.317841 781.668945,323.676270 767.525757,319.471985 
	C754.014343,315.455444 740.296204,311.993744 726.492920,309.139526 
	C713.355774,306.423065 700.038757,304.410889 686.714294,302.808075 
	C670.255737,300.828339 653.735840,298.943024 637.190125,298.227142 
	C622.594971,297.595703 607.911682,298.303406 593.297424,299.027405 
	C581.543274,299.609741 569.704712,300.342743 558.127441,302.319611 
	C507.687988,310.932190 459.499512,326.616058 413.701019,349.547699 
	C398.984711,356.916290 384.179504,364.109650 369.354156,371.257080 
	C362.957306,374.341034 355.592346,376.046722 350.114349,380.260040 
	C341.761353,386.684662 332.582794,388.059113 322.910217,387.714661 
	C308.315247,387.194916 293.735107,386.094116 279.169159,384.973663 
	C267.262817,384.057831 255.394211,382.661652 243.494766,381.642944 
	C229.614166,380.454620 215.719528,379.427887 201.824478,378.420502 
	C201.265137,378.379913 200.639343,379.255890 199.192947,380.347534 
	C206.093613,384.638824 212.373886,388.547882 218.657639,392.451355 
	C245.308838,409.007050 271.443512,426.480560 298.759552,441.855164 
	C325.680267,457.007233 353.849609,469.931732 381.375122,484.021149 
	C406.652832,496.959991 433.203125,506.659302 460.367310,514.557617 
	C486.984802,522.296936 513.790588,529.466675 540.730164,535.993042 
	C558.914978,540.398499 577.367676,544.033752 595.896851,546.589844 
	C615.258362,549.260803 634.827759,550.830078 654.359070,551.715332 
	C666.407837,552.261414 678.552979,550.143250 690.658997,550.084717 
	C710.066589,549.990906 726.769775,567.076477 726.930542,586.422058 
	C727.076050,603.934814 714.418640,619.638306 695.423523,623.713257 
	C684.297302,626.100159 672.794678,627.318115 661.408875,627.785889 
	C638.448792,628.729187 615.557922,626.729553 592.929443,622.951721 
	C566.945068,618.613525 540.922546,614.203064 515.258911,608.328308 
	C488.906677,602.295898 462.830414,594.921997 436.895721,587.248474 
	C419.232330,582.022095 401.619781,576.208313 384.699646,568.982666 
	C359.173859,558.082031 334.166962,545.938354 309.147217,533.891663 
	C295.385132,527.265320 281.893097,520.033325 268.560089,512.572571 
	C253.337448,504.054474 238.269196,495.234192 223.423477,486.075684 
	C207.315216,476.138245 191.746399,465.320404 175.564011,455.510559 
	C158.305756,445.048462 142.182144,433.231964 127.639732,419.241394 
	C126.297897,417.950470 124.576180,417.054443 122.004227,415.257965 
	C122.004227,420.744659 121.709877,425.017426 122.065163,429.235535 
	C122.817917,438.172638 123.456284,447.273315 129.448776,454.647797 
	C135.311935,461.863098 141.213806,469.071350 147.500656,475.913361 
	C165.229736,495.208038 185.615021,511.573700 206.559891,527.099609 
	C223.460693,539.627808 241.365936,550.812988 258.955719,562.396301 
	C275.876709,573.539246 292.714447,584.842834 310.049988,595.312195 
	C327.244415,605.696289 344.523773,616.165771 362.649536,624.726990 
	C388.073090,636.735291 412.891693,649.754639 436.776154,664.484131 
	C445.897797,670.109436 454.163666,677.259766 462.299835,684.314453 
	C475.557831,695.810181 487.626404,708.410156 494.859985,724.815369 
	C500.096802,736.692017 500.681030,748.620605 494.579010,760.321716 
	C492.562134,764.189209 489.610687,767.569275 486.685791,771.744263 
	C488.910004,772.251221 490.457123,772.852905 492.027283,772.920837 
	C501.328308,773.322876 510.632660,773.686646 519.939636,773.902710 
	C537.407532,774.308289 554.880676,774.504761 572.346680,774.971863 
	C592.956970,775.523071 613.560486,776.325439 634.169983,776.911865 
	C649.469360,777.347168 664.778687,778.039124 680.074341,777.853027 
	C703.349365,777.569824 726.620789,776.747009 749.883972,775.888550 
	C756.996033,775.626160 764.099548,774.670837 771.165771,773.724792 
	C786.933899,771.613647 802.625671,768.820068 818.439758,767.188843 
	C847.194214,764.222595 875.482605,758.941101 903.620789,752.422302 
	C933.533142,745.492249 962.257202,734.924988 990.896423,724.258728 
	C1008.913574,717.548523 1026.283691,708.976746 1043.592651,700.520691 
	C1065.548340,689.794678 1086.924316,677.870605 1108.979980,667.365356 
	C1123.336792,660.527222 1138.439575,655.247131 1153.247070,649.367249 
	C1159.924683,646.715637 1160.512573,645.758850 1156.841919,639.833984 
	C1143.373779,618.094788 1130.301270,596.084412 1116.094116,574.835266 
	C1097.323120,546.760071 1075.383057,521.115234 1052.073120,496.722473 
	C1039.312744,483.369446 1026.128540,470.351471 1012.356995,458.054108 
	C998.258179,445.464447 983.208740,433.939362 968.034790,421.473480 
M253.961029,779.645752 
	C254.035019,780.976196 253.991837,782.325562 254.202744,783.633972 
	C255.269012,790.249023 255.936722,790.602539 262.235748,788.755859 
	C267.329071,787.262756 272.488312,785.995850 277.593170,784.540466 
	C304.922394,776.748657 332.971985,774.004944 361.211304,773.109192 
	C385.167877,772.349365 409.147430,772.317810 433.116455,771.940552 
	C434.607941,771.917053 436.096222,771.689026 437.830750,771.534302 
	C434.113953,763.833740 427.462585,763.768555 421.085632,762.472229 
	C387.753235,755.696045 354.467834,748.686035 321.190735,741.641052 
	C299.610992,737.072449 277.799561,735.570374 255.792450,735.977844 
	C252.063675,736.046814 250.643921,737.371094 251.024185,741.041016 
	C251.502869,745.660828 251.805283,750.299744 252.140961,754.933472 
	C252.716156,762.874084 253.258163,770.817139 253.961029,779.645752 
z"/>
<path fill="#EFE066" opacity="1.000000" stroke="none" 
	d="
M1046.055542,385.270599 
	C1040.769409,381.357910 1035.445190,377.495270 1030.206055,373.520599 
	C1022.675110,367.807129 1015.185059,362.039001 1007.730896,356.225677 
	C1006.460327,355.234772 1005.457336,353.900757 1004.162476,352.448944 
	C1013.758057,327.232727 1024.355713,302.731201 1041.980225,282.071106 
	C1044.109985,279.574554 1047.003784,277.741272 1049.459717,275.508423 
	C1052.031494,273.170166 1054.899536,271.016968 1056.948364,268.268707 
	C1065.880615,256.286957 1091.767456,261.602661 1096.151611,272.112915 
	C1097.104736,274.397949 1098.210693,276.839050 1098.279785,279.236176 
	C1098.642578,291.830505 1104.228027,302.997620 1107.615845,314.758423 
	C1108.948120,319.383392 1110.519775,323.940247 1111.815063,328.574890 
	C1112.558960,331.236298 1113.990112,332.414734 1116.824585,332.260803 
	C1129.131958,331.592346 1141.346558,330.561523 1152.930786,325.795197 
	C1168.553101,319.367371 1184.077271,324.982758 1189.240479,339.012146 
	C1192.374146,347.526978 1191.878540,356.302582 1190.250000,365.048523 
	C1189.248291,370.428406 1187.986206,375.761017 1187.039551,381.149750 
	C1185.066895,392.378998 1187.327026,396.565735 1198.443848,401.086761 
	C1207.374268,404.718628 1216.489380,407.902771 1225.560059,411.181824 
	C1241.465332,416.931580 1249.092407,430.554810 1244.711548,446.184082 
	C1242.695312,453.377380 1237.574829,458.389832 1231.543823,462.546082 
	C1220.333008,470.271942 1209.064331,477.919647 1198.005737,485.859100 
	C1190.996338,490.891510 1184.468506,496.595978 1177.443481,501.604675 
	C1173.439941,504.459076 1168.871216,506.520752 1164.175903,509.035950 
	C1160.841553,505.859589 1157.782837,502.674927 1154.955078,499.296997 
	C1146.881348,489.652496 1138.886597,479.941772 1130.907715,470.218567 
	C1130.091309,469.223785 1129.591919,467.968933 1129.186768,466.333740 
	C1137.862305,457.584045 1148.092285,452.143738 1158.583618,447.083679 
	C1160.549072,446.135712 1162.304077,444.751526 1165.003174,443.027710 
	C1163.249390,441.683746 1162.238281,441.091675 1161.455444,440.279602 
	C1155.945435,434.563812 1149.810669,429.295013 1145.156982,422.944397 
	C1137.619629,412.658325 1135.793213,400.458710 1136.044922,387.905579 
	C1136.169434,381.693756 1135.866821,381.739746 1129.598022,381.981781 
	C1122.013184,382.274689 1114.303833,382.862030 1106.833984,381.892609 
	C1090.845337,379.817627 1079.433594,370.882904 1072.593872,356.255341 
	C1070.677734,352.157349 1068.978638,347.957703 1066.649658,342.580078 
	C1058.206787,357.117462 1050.789917,370.527496 1046.055542,385.270599 
z"/>
<path fill="#EFE16B" opacity="1.000000" stroke="none" 
	d="
M1101.227539,203.250534 
	C1122.197754,202.051590 1136.405640,224.158066 1124.833374,243.372360 
	C1118.632690,253.667831 1105.071167,259.489258 1090.334839,252.331009 
	C1080.110840,247.364700 1075.183594,235.120316 1076.581665,225.919647 
	C1078.511353,213.221741 1088.040283,204.534103 1101.227539,203.250534 
z"/>
<path fill="#EFE06A" opacity="1.000000" stroke="none" 
	d="
M1263.207275,418.815002 
	C1255.755615,412.456024 1252.301514,404.499268 1254.848389,395.469055 
	C1257.740845,385.213379 1264.317261,377.457397 1275.439819,375.267548 
	C1290.981812,372.207550 1300.262085,382.469879 1302.542847,392.011902 
	C1306.159790,407.144135 1297.081909,419.329254 1284.303955,422.758728 
	C1276.783813,424.777130 1269.822266,423.710236 1263.207275,418.815002 
z"/>
<path fill="#EFE06A" opacity="1.000000" stroke="none" 
	d="
M1225.022705,277.954529 
	C1231.895996,284.655914 1233.917847,292.473938 1230.657471,300.981323 
	C1227.235840,309.909210 1220.352051,315.104950 1210.622192,315.801178 
	C1199.657837,316.585693 1191.603638,312.226410 1188.452881,304.119293 
	C1184.816528,294.762543 1187.569702,283.885864 1195.103638,277.844421 
	C1203.782471,270.884949 1213.852661,270.335480 1222.673096,276.337921 
	C1223.360596,276.805817 1224.057739,277.259583 1225.022705,277.954529 
z"/>
<path fill="#FEFFFF" opacity="1.000000" stroke="none" 
	d="
M968.305054,421.710876 
	C983.208740,433.939362 998.258179,445.464447 1012.356995,458.054108 
	C1026.128540,470.351471 1039.312744,483.369446 1052.073120,496.722473 
	C1075.383057,521.115234 1097.323120,546.760071 1116.094116,574.835266 
	C1130.301270,596.084412 1143.373779,618.094788 1156.841919,639.833984 
	C1160.512573,645.758850 1159.924683,646.715637 1153.247070,649.367249 
	C1138.439575,655.247131 1123.336792,660.527222 1108.979980,667.365356 
	C1086.924316,677.870605 1065.548340,689.794678 1043.592651,700.520691 
	C1026.283691,708.976746 1008.913574,717.548523 990.896423,724.258728 
	C962.257202,734.924988 933.533142,745.492249 903.620789,752.422302 
	C875.482605,758.941101 847.194214,764.222595 818.439758,767.188843 
	C802.625671,768.820068 786.933899,771.613647 771.165771,773.724792 
	C764.099548,774.670837 756.996033,775.626160 749.883972,775.888550 
	C726.620789,776.747009 703.349365,777.569824 680.074341,777.853027 
	C664.778687,778.039124 649.469360,777.347168 634.169983,776.911865 
	C613.560486,776.325439 592.956970,775.523071 572.346680,774.971863 
	C554.880676,774.504761 537.407532,774.308289 519.939636,773.902710 
	C510.632660,773.686646 501.328308,773.322876 492.027283,772.920837 
	C490.457123,772.852905 488.910004,772.251221 486.685791,771.744263 
	C489.610687,767.569275 492.562134,764.189209 494.579010,760.321716 
	C500.681030,748.620605 500.096802,736.692017 494.859985,724.815369 
	C487.626404,708.410156 475.557831,695.810181 462.299835,684.314453 
	C454.163666,677.259766 445.897797,670.109436 436.776154,664.484131 
	C412.891693,649.754639 388.073090,636.735291 362.649536,624.726990 
	C344.523773,616.165771 327.244415,605.696289 310.049988,595.312195 
	C292.714447,584.842834 275.876709,573.539246 258.955719,562.396301 
	C241.365936,550.812988 223.460693,539.627808 206.559891,527.099609 
	C185.615021,511.573700 165.229736,495.208038 147.500656,475.913361 
	C141.213806,469.071350 135.311935,461.863098 129.448776,454.647797 
	C123.456284,447.273315 122.817917,438.172638 122.065163,429.235535 
	C121.709877,425.017426 122.004227,420.744659 122.004227,415.257965 
	C124.576180,417.054443 126.297897,417.950470 127.639732,419.241394 
	C142.182144,433.231964 158.305756,445.048462 175.564011,455.510559 
	C191.746399,465.320404 207.315216,476.138245 223.423477,486.075684 
	C238.269196,495.234192 253.337448,504.054474 268.560089,512.572571 
	C281.893097,520.033325 295.385132,527.265320 309.147217,533.891663 
	C334.166962,545.938354 359.173859,558.082031 384.699646,568.982666 
	C401.619781,576.208313 419.232330,582.022095 436.895721,587.248474 
	C462.830414,594.921997 488.906677,602.295898 515.258911,608.328308 
	C540.922546,614.203064 566.945068,618.613525 592.929443,622.951721 
	C615.557922,626.729553 638.448792,628.729187 661.408875,627.785889 
	C672.794678,627.318115 684.297302,626.100159 695.423523,623.713257 
	C714.418640,619.638306 727.076050,603.934814 726.930542,586.422058 
	C726.769775,567.076477 710.066589,549.990906 690.658997,550.084717 
	C678.552979,550.143250 666.407837,552.261414 654.359070,551.715332 
	C634.827759,550.830078 615.258362,549.260803 595.896851,546.589844 
	C577.367676,544.033752 558.914978,540.398499 540.730164,535.993042 
	C513.790588,529.466675 486.984802,522.296936 460.367310,514.557617 
	C433.203125,506.659302 406.652832,496.959991 381.375122,484.021149 
	C353.849609,469.931732 325.680267,457.007233 298.759552,441.855164 
	C271.443512,426.480560 245.308838,409.007050 218.657639,392.451355 
	C212.373886,388.547882 206.093613,384.638824 199.192947,380.347534 
	C200.639343,379.255890 201.265137,378.379913 201.824478,378.420502 
	C215.719528,379.427887 229.614166,380.454620 243.494766,381.642944 
	C255.394211,382.661652 267.262817,384.057831 279.169159,384.973663 
	C293.735107,386.094116 308.315247,387.194916 322.910217,387.714661 
	C332.582794,388.059113 341.761353,386.684662 350.114349,380.260040 
	C355.592346,376.046722 362.957306,374.341034 369.354156,371.257080 
	C384.179504,364.109650 398.984711,356.916290 413.701019,349.547699 
	C459.499512,326.616058 507.687988,310.932190 558.127441,302.319611 
	C569.704712,300.342743 581.543274,299.609741 593.297424,299.027405 
	C607.911682,298.303406 622.594971,297.595703 637.190125,298.227142 
	C653.735840,298.943024 670.255737,300.828339 686.714294,302.808075 
	C700.038757,304.410889 713.355774,306.423065 726.492920,309.139526 
	C740.296204,311.993744 754.014343,315.455444 767.525757,319.471985 
	C781.668945,323.676270 795.734985,328.317841 809.450012,333.741211 
	C827.982971,341.069702 846.606323,348.423462 864.355408,357.415588 
	C886.114685,368.439453 907.335144,380.635681 928.166138,393.345245 
	C942.019348,401.797455 954.783325,412.035034 968.305054,421.710876 
M794.077759,651.380066 
	C803.844360,661.138184 818.761902,662.634705 831.657837,654.502380 
	C851.404297,642.049866 866.422119,625.321106 875.644592,603.693054 
	C877.105957,600.265930 878.166687,596.667969 879.412598,593.148987 
	C879.970154,592.795837 880.527649,592.442749 881.085205,592.089600 
	C883.964050,595.469177 886.645325,599.044128 889.758423,602.192017 
	C899.335388,611.876099 910.729431,616.268250 924.505066,614.004700 
	C934.797668,612.313416 944.767639,603.628174 947.304871,593.543213 
	C950.691833,580.080322 945.456238,565.824585 933.221924,557.270203 
	C926.581787,552.627258 919.322876,548.847412 912.234070,544.872559 
	C897.615295,536.675537 882.307983,530.144897 865.369934,529.143738 
	C844.619263,527.917297 824.321106,530.344055 804.706055,537.874207 
	C791.304077,543.019165 779.442017,550.510925 768.841614,559.968384 
	C764.532654,563.812744 760.718079,568.522461 762.608337,575.236145 
	C764.740479,582.809143 772.556824,586.599792 782.540283,584.579895 
	C790.020020,583.066528 797.405579,581.086548 804.888184,579.589844 
	C809.389099,578.689514 813.995667,578.317261 818.554749,577.707764 
	C818.701782,578.251892 818.848816,578.796082 818.995911,579.340271 
	C817.039246,581.047363 815.098267,582.772888 813.123352,584.458557 
	C803.206055,592.923645 798.444458,604.888000 792.217102,615.781677 
	C785.513123,627.508911 785.117371,639.466858 794.077759,651.380066 
z"/>
<path fill="#FDFEFB" opacity="1.000000" stroke="none" 
	d="
M1046.083496,385.589722 
	C1050.789917,370.527496 1058.206787,357.117462 1066.649658,342.580078 
	C1068.978638,347.957703 1070.677734,352.157349 1072.593872,356.255341 
	C1079.433594,370.882904 1090.845337,379.817627 1106.833984,381.892609 
	C1114.303833,382.862030 1122.013184,382.274689 1129.598022,381.981781 
	C1135.866821,381.739746 1136.169434,381.693756 1136.044922,387.905579 
	C1135.793213,400.458710 1137.619629,412.658325 1145.156982,422.944397 
	C1149.810669,429.295013 1155.945435,434.563812 1161.455444,440.279602 
	C1162.238281,441.091675 1163.249390,441.683746 1165.003174,443.027710 
	C1162.304077,444.751526 1160.549072,446.135712 1158.583618,447.083679 
	C1148.092285,452.143738 1137.862305,457.584045 1129.104004,465.990265 
	C1123.235229,460.517700 1117.718994,454.859100 1112.139893,449.263336 
	C1099.356201,436.441406 1086.703491,423.482727 1073.683838,410.904449 
	C1064.766479,402.289490 1055.320923,394.221375 1046.083496,385.589722 
z"/>
<path fill="#F9FDFF" opacity="1.000000" stroke="none" 
	d="
M253.887573,779.202454 
	C253.258163,770.817139 252.716156,762.874084 252.140961,754.933472 
	C251.805283,750.299744 251.502869,745.660828 251.024185,741.041016 
	C250.643921,737.371094 252.063675,736.046814 255.792450,735.977844 
	C277.799561,735.570374 299.610992,737.072449 321.190735,741.641052 
	C354.467834,748.686035 387.753235,755.696045 421.085632,762.472229 
	C427.462585,763.768555 434.113953,763.833740 437.830750,771.534302 
	C436.096222,771.689026 434.607941,771.917053 433.116455,771.940552 
	C409.147430,772.317810 385.167877,772.349365 361.211304,773.109192 
	C332.971985,774.004944 304.922394,776.748657 277.593170,784.540466 
	C272.488312,785.995850 267.329071,787.262756 262.235748,788.755859 
	C255.936722,790.602539 255.269012,790.249023 254.202744,783.633972 
	C253.991837,782.325562 254.035019,780.976196 253.887573,779.202454 
z"/>
<path fill="#80D1FE" opacity="1.000000" stroke="none" 
	d="
M793.840271,651.105408 
	C785.117371,639.466858 785.513123,627.508911 792.217102,615.781677 
	C798.444458,604.888000 803.206055,592.923645 813.123352,584.458557 
	C815.098267,582.772888 817.039246,581.047363 818.995911,579.340271 
	C818.848816,578.796082 818.701782,578.251892 818.554749,577.707764 
	C813.995667,578.317261 809.389099,578.689514 804.888184,579.589844 
	C797.405579,581.086548 790.020020,583.066528 782.540283,584.579895 
	C772.556824,586.599792 764.740479,582.809143 762.608337,575.236145 
	C760.718079,568.522461 764.532654,563.812744 768.841614,559.968384 
	C779.442017,550.510925 791.304077,543.019165 804.706055,537.874207 
	C824.321106,530.344055 844.619263,527.917297 865.369934,529.143738 
	C882.307983,530.144897 897.615295,536.675537 912.234070,544.872559 
	C919.322876,548.847412 926.581787,552.627258 933.221924,557.270203 
	C945.456238,565.824585 950.691833,580.080322 947.304871,593.543213 
	C944.767639,603.628174 934.797668,612.313416 924.505066,614.004700 
	C910.729431,616.268250 899.335388,611.876099 889.758423,602.192017 
	C886.645325,599.044128 883.964050,595.469177 881.085205,592.089600 
	C880.527649,592.442749 879.970154,592.795837 879.412598,593.148987 
	C878.166687,596.667969 877.105957,600.265930 875.644592,603.693054 
	C866.422119,625.321106 851.404297,642.049866 831.657837,654.502380 
	C818.761902,662.634705 803.844360,661.138184 793.840271,651.105408 
z"/>
</svg>