<svg width="29" height="26" viewBox="0 0 29 26" fill="none" xmlns="http://www.w3.org/2000/svg">
<path d="M2.9375 25.75C2.9375 25.75 0.625 25.75 0.625 23.625C0.625 21.5 2.9375 15.125 14.5 15.125C26.0625 15.125 28.375 21.5 28.375 23.625C28.375 25.75 26.0625 25.75 26.0625 25.75H2.9375ZM14.5 13C16.3399 13 18.1045 12.3284 19.4056 11.1328C20.7066 9.93726 21.4375 8.31575 21.4375 6.625C21.4375 4.93425 20.7066 3.31274 19.4056 2.11719C18.1045 0.92165 16.3399 0.25 14.5 0.25C12.6601 0.25 10.8955 0.92165 9.59445 2.11719C8.29341 3.31274 7.5625 4.93425 7.5625 6.625C7.5625 8.31575 8.29341 9.93726 9.59445 11.1328C10.8955 12.3284 12.6601 13 14.5 13Z" fill="white"/>
</svg>
