<svg width="57" height="49" viewBox="0 0 57 49" fill="none" xmlns="http://www.w3.org/2000/svg">
<path d="M2.09375 48.875C1.55503 48.875 1.03837 48.661 0.657439 48.2801C0.276506 47.8991 0.0625 47.3825 0.0625 46.8438V2.15625C0.0625 1.61753 0.276506 1.10087 0.657439 0.71994C1.03837 0.339006 1.55503 0.125 2.09375 0.125H54.9062C55.445 0.125 55.9616 0.339006 56.3426 0.71994C56.7235 1.10087 56.9375 1.61753 56.9375 2.15625V46.8438C56.9375 47.3825 56.7235 47.8991 56.3426 48.2801C55.9616 48.661 55.445 48.875 54.9062 48.875H2.09375ZM22.1219 34.3719L17.7466 29.9966C17.3656 29.6158 16.8491 29.4018 16.3105 29.4018C15.7719 29.4018 15.2553 29.6158 14.8744 29.9966L4.125 40.7541H53.5534L38.185 22.3103C37.9944 22.081 37.7556 21.8965 37.4857 21.7698C37.2157 21.6432 36.9212 21.5775 36.623 21.5775C36.3248 21.5775 36.0302 21.6432 35.7603 21.7698C35.4903 21.8965 35.2516 22.081 35.0609 22.3103L25.12 34.2378C24.9392 34.4547 24.7151 34.6316 24.4621 34.757C24.209 34.8825 23.9326 34.9538 23.6505 34.9664C23.3684 34.979 23.0867 34.9326 22.8235 34.8303C22.5603 34.7279 22.3213 34.5718 22.1219 34.3719ZM12.25 16.375C12.2503 17.1755 12.4082 17.9681 12.7148 18.7076C13.0214 19.4471 13.4706 20.1189 14.0368 20.6848C14.6031 21.2506 15.2752 21.6994 16.0149 22.0055C16.7546 22.3116 17.5473 22.469 18.3478 22.4688C19.1483 22.4685 19.9409 22.3105 20.6804 22.004C21.4199 21.6974 22.0917 21.2481 22.6576 20.6819C23.2234 20.1157 23.6722 19.4435 23.9783 18.7038C24.2844 17.9642 24.4418 17.1714 24.4416 16.3709C24.441 14.7542 23.7983 13.204 22.6547 12.0612C21.5112 10.9184 19.9605 10.2766 18.3438 10.2772C16.727 10.2777 15.1768 10.9205 14.034 12.064C12.8912 13.2076 12.2495 14.7583 12.25 16.375Z" fill="#7ED0FF"/>
</svg>
