<svg width="22" height="22" viewBox="0 0 22 22" fill="none" xmlns="http://www.w3.org/2000/svg">
<path fill-rule="evenodd" clip-rule="evenodd" d="M10.75 1.784C10.692 1.885 10.627 2.001 10.551 2.138L10.453 2.314L10.43 2.354C10.352 2.498 10.222 2.736 10.005 2.901C9.784 3.069 9.517 3.127 9.362 3.161L9.318 3.17L9.128 3.213C8.952 3.253 8.809 3.285 8.688 3.316C8.767 3.413 8.87 3.535 9.004 3.692L9.134 3.844L9.164 3.878C9.272 4.003 9.446 4.203 9.527 4.463C9.607 4.719 9.579 4.983 9.562 5.149C9.56024 5.16466 9.55857 5.18032 9.557 5.196L9.537 5.399C9.52201 5.55224 9.50801 5.70558 9.495 5.859C9.6 5.813 9.718 5.759 9.859 5.694L10.038 5.612L10.078 5.592C10.222 5.525 10.471 5.407 10.75 5.407C11.029 5.407 11.278 5.525 11.422 5.593L11.462 5.612L11.641 5.694C11.781 5.759 11.901 5.814 12.005 5.859C11.992 5.70558 11.978 5.55224 11.963 5.399L11.943 5.196C11.9414 5.18032 11.9398 5.16466 11.938 5.149C11.921 4.982 11.893 4.719 11.973 4.463C12.053 4.203 12.228 4.003 12.336 3.878L12.366 3.844L12.496 3.692C12.63 3.535 12.733 3.413 12.812 3.316C12.691 3.286 12.548 3.253 12.372 3.213L12.182 3.17L12.138 3.16C11.983 3.127 11.716 3.069 11.495 2.9C11.278 2.736 11.148 2.498 11.07 2.355L11.047 2.314L10.949 2.138C10.873 2.001 10.809 1.885 10.75 1.784ZM9.764 0.55C9.936 0.325 10.248 0 10.75 0C11.252 0 11.564 0.325 11.736 0.55C11.901 0.764 12.066 1.061 12.236 1.366L12.259 1.407L12.357 1.584L12.414 1.684L12.513 1.707L12.703 1.75L12.751 1.76C13.078 1.835 13.404 1.908 13.654 2.007C13.93 2.116 14.304 2.327 14.449 2.792C14.591 3.247 14.412 3.633 14.256 3.882C14.111 4.112 13.891 4.368 13.666 4.631L13.636 4.666L13.506 4.819L13.424 4.916C13.426 4.952 13.431 4.994 13.436 5.051L13.456 5.254L13.46 5.3C13.494 5.652 13.527 5.992 13.515 6.264C13.503 6.55 13.435 6.982 13.047 7.275C12.647 7.579 12.207 7.513 11.927 7.432C11.669 7.359 11.364 7.218 11.057 7.077L11.014 7.057L10.834 6.974L10.75 6.935L10.665 6.975L10.486 7.057L10.442 7.077C10.136 7.218 9.832 7.359 9.573 7.432C9.293 7.512 8.853 7.579 8.453 7.275C8.066 6.982 7.997 6.55 7.985 6.265C7.973 5.992 8.005 5.652 8.04 5.3L8.044 5.254L8.064 5.051L8.077 4.916C8.04954 4.88349 8.02188 4.85115 7.994 4.819L7.864 4.666L7.834 4.631C7.609 4.368 7.389 4.111 7.244 3.881C7.088 3.633 6.909 3.247 7.051 2.791C7.195 2.328 7.57 2.116 7.846 2.007C8.096 1.908 8.422 1.835 8.749 1.761L8.796 1.751L8.987 1.707L9.087 1.684L9.143 1.584L9.241 1.407L9.264 1.366C9.434 1.061 9.599 0.764 9.764 0.55ZM9.701 8H11.799C12.464 8 13.037 8 13.496 8.062C13.988 8.128 14.459 8.277 14.841 8.659C15.223 9.041 15.372 9.512 15.438 10.004C15.5 10.463 15.5 11.036 15.5 11.701V14.167C15.664 14.117 15.833 14.085 16.004 14.062C16.463 14 17.036 14 17.701 14H17.799C18.464 14 19.037 14 19.496 14.062C19.988 14.128 20.459 14.277 20.841 14.659C21.223 15.041 21.372 15.512 21.438 16.004C21.5 16.463 21.5 17.036 21.5 17.701V20.75C21.5 20.9489 21.421 21.1397 21.2803 21.2803C21.1397 21.421 20.9489 21.5 20.75 21.5C20.5511 21.5 20.3603 21.421 20.2197 21.2803C20.079 21.1397 20 20.9489 20 20.75V17.75C20 17.022 19.998 16.55 19.952 16.204C19.908 15.879 19.837 15.777 19.78 15.72C19.723 15.663 19.621 15.592 19.296 15.548C18.949 15.502 18.478 15.5 17.75 15.5C17.022 15.5 16.55 15.502 16.204 15.548C15.879 15.592 15.777 15.663 15.72 15.72C15.663 15.777 15.592 15.879 15.548 16.204C15.502 16.551 15.5 17.022 15.5 17.75V20.75C15.5 20.9489 15.421 21.1397 15.2803 21.2803C15.1397 21.421 14.9489 21.5 14.75 21.5C14.5511 21.5 14.3603 21.421 14.2197 21.2803C14.079 21.1397 14 20.9489 14 20.75V11.75C14 11.022 13.998 10.55 13.952 10.204C13.908 9.879 13.837 9.777 13.78 9.72C13.723 9.663 13.621 9.592 13.296 9.548C12.949 9.502 12.478 9.5 11.75 9.5H9.75C9.022 9.5 8.55 9.502 8.204 9.548C7.879 9.592 7.777 9.663 7.72 9.72C7.663 9.777 7.592 9.879 7.548 10.204C7.502 10.551 7.5 11.022 7.5 11.75V20.75C7.5 20.9489 7.42098 21.1397 7.28033 21.2803C7.13968 21.421 6.94891 21.5 6.75 21.5C6.55109 21.5 6.36032 21.421 6.21967 21.2803C6.07902 21.1397 6 20.9489 6 20.75C6 20.022 5.998 19.55 5.952 19.204C5.908 18.879 5.837 18.777 5.78 18.72C5.723 18.663 5.621 18.592 5.296 18.548C4.949 18.502 4.478 18.5 3.75 18.5C3.022 18.5 2.55 18.502 2.204 18.548C1.879 18.592 1.777 18.663 1.72 18.72C1.663 18.777 1.592 18.879 1.548 19.204C1.502 19.551 1.5 20.022 1.5 20.75C1.5 20.9489 1.42098 21.1397 1.28033 21.2803C1.13968 21.421 0.948912 21.5 0.75 21.5C0.551088 21.5 0.360322 21.421 0.21967 21.2803C0.0790177 21.1397 0 20.9489 0 20.75V20.7C0 20.036 3.72529e-08 19.463 0.062 19.004C0.128 18.512 0.277 18.041 0.659 17.659C1.041 17.277 1.513 17.128 2.004 17.062C2.463 17 3.036 17 3.701 17H3.799C4.464 17 5.037 17 5.496 17.062C5.667 17.085 5.836 17.118 6 17.167V11.701C6 11.036 6 10.463 6.062 10.004C6.128 9.512 6.277 9.041 6.659 8.659C7.041 8.277 7.513 8.128 8.004 8.062C8.463 8 9.036 8 9.701 8Z" fill="white"/>
</svg>
