<svg width="193" height="162" viewBox="0 0 193 162" fill="none" xmlns="http://www.w3.org/2000/svg">
<path d="M189.66 86.66L117.66 158.66C116.159 160.161 114.123 161.004 112 161.004C109.877 161.004 107.841 160.161 106.34 158.66C104.839 157.159 103.996 155.123 103.996 153C103.996 150.877 104.839 148.841 106.34 147.34L164.69 89H8C5.87827 89 3.84344 88.1571 2.34315 86.6569C0.842856 85.1566 0 83.1217 0 81C0 78.8783 0.842856 76.8434 2.34315 75.3431C3.84344 73.8428 5.87827 73 8 73H164.69L106.34 14.66C104.839 13.1589 103.996 11.1229 103.996 8.99999C103.996 6.87708 104.839 4.84112 106.34 3.33999C107.841 1.83887 109.877 0.995544 112 0.995544C114.123 0.995544 116.159 1.83887 117.66 3.33999L189.66 75.34C190.404 76.083 190.994 76.9653 191.396 77.9365C191.799 78.9077 192.006 79.9487 192.006 81C192.006 82.0513 191.799 83.0923 191.396 84.0635C190.994 85.0347 190.404 85.917 189.66 86.66Z" fill="black"/>
</svg>
