<svg width="29" height="29" viewBox="0 0 29 29" fill="none" xmlns="http://www.w3.org/2000/svg">
<path d="M28.7358 27.4522L19.9594 18.5899C21.5952 16.6236 22.5811 14.0939 22.5811 11.3317C22.5811 5.07343 17.5261 0 11.2905 0C5.055 0 0 5.07343 0 11.3317C0 17.59 5.055 22.6634 11.2905 22.6634C14.1236 22.6634 16.7114 21.6136 18.694 19.8831L27.4581 28.7345C27.8109 29.0885 28.3831 29.0885 28.7358 28.7345C29.0881 28.3805 29.0881 27.8066 28.7358 27.4522H28.7358ZM11.2905 20.8653C6.0445 20.8653 1.79158 16.5969 1.79158 11.3317C1.79158 6.06654 6.0445 1.79811 11.2905 1.79811C16.5366 1.79811 20.7895 6.06654 20.7895 11.3317C20.7895 16.5969 16.5366 20.8653 11.2905 20.8653Z" fill="#ACABAB"/>
</svg>
