<svg width="15" height="16" viewBox="0 0 15 16" fill="none" xmlns="http://www.w3.org/2000/svg">
<path d="M0 0.888812C0 0.653084 0.092973 0.427012 0.258466 0.260327C0.423959 0.0936426 0.648415 0 0.882457 0C1.1165 0 1.34096 0.0936426 1.50645 0.260327C1.67194 0.427012 1.76491 0.653084 1.76491 0.888812V6.66254L12.8256 0.199094C13.7787 -0.357302 15 0.316417 15 1.43632V14.5623C15 15.6822 13.7787 16.3577 12.8256 15.8013L1.76491 9.33786V15.1098C1.76491 15.3455 1.67194 15.5716 1.50645 15.7383C1.34096 15.905 1.1165 15.9986 0.882457 15.9986C0.648415 15.9986 0.423959 15.905 0.258466 15.7383C0.092973 15.5716 0 15.3455 0 15.1098V0.888812Z" fill="white"/>
</svg>
