<svg width="32" height="32" viewBox="0 0 32 32" fill="none" xmlns="http://www.w3.org/2000/svg">
<g clip-path="url(#clip0_218_134)">
<mask id="mask0_218_134" style="mask-type:luminance" maskUnits="userSpaceOnUse" x="0" y="0" width="32" height="32">
<path d="M0 0H32V32H0V0Z" fill="white"/>
</mask>
<g mask="url(#mask0_218_134)">
<path d="M4.74206 15.418C4.66953 15.5309 4.60856 15.6508 4.56006 15.776C3.81131 17.3139 3.42314 19.0024 3.42506 20.713C3.42506 26.947 8.48006 32 14.7131 32C18.6401 32 22.0971 29.993 24.1161 26.958L28.3641 21.452C28.7411 20.9631 29.0165 20.4037 29.1741 19.8067C29.3317 19.2097 29.3682 18.5873 29.2816 17.976C29.1949 17.3647 28.9868 16.7769 28.6695 16.2473C28.3522 15.7176 27.9321 15.2568 27.4341 14.892C27.3937 14.196 27.187 13.5199 26.8311 12.9204C26.4752 12.321 25.9807 11.8157 25.3891 11.447C24.7628 11.0546 24.047 10.8281 23.3091 10.789C23.1658 10.0602 22.8506 9.37625 22.3897 8.79391C21.9288 8.21157 21.3354 7.74773 20.6591 7.44097L21.1091 6.80497C21.7228 5.93831 21.9961 4.87605 21.8768 3.8208C21.7575 2.76554 21.2539 1.79112 20.4621 1.0834C19.6703 0.375668 18.6457 -0.0158473 17.5837 -0.0164787C16.5217 -0.0171102 15.4967 0.373186 14.7041 1.07997C14.594 0.99404 14.4809 0.91199 14.3651 0.833971C13.3161 0.127971 11.7011 -0.420029 9.99506 0.431971C9.14706 0.856971 8.43006 1.43497 7.96206 2.21597C7.53697 2.93004 7.35453 3.76257 7.44206 4.58897C7.56206 5.83597 8.24206 6.95897 8.57006 7.50197L8.62106 7.58597C8.69603 7.71033 8.76937 7.83568 8.84106 7.96197C8.97998 8.25747 9.10873 8.55764 9.22706 8.86197L6.15206 13.356C5.60735 13.9891 5.13447 14.6807 4.74206 15.418ZM7.53006 14.825C7.59806 14.742 7.66706 14.661 7.73806 14.581L11.0961 9.67297C11.1336 9.64253 11.1667 9.60683 11.1941 9.56697L15.1211 3.84397C15.1547 3.79538 15.1794 3.74121 15.1941 3.68397L15.6651 2.99497C15.8378 2.7409 16.0592 2.52361 16.3164 2.35568C16.5737 2.18775 16.8617 2.07251 17.1638 2.01665C17.4659 1.96079 17.7761 1.9654 18.0764 2.03022C18.3767 2.09505 18.6611 2.2188 18.9133 2.39431C19.1654 2.56981 19.3803 2.79359 19.5454 3.05269C19.7104 3.31179 19.8225 3.60106 19.875 3.90376C19.9275 4.20645 19.9195 4.51656 19.8514 4.81613C19.7832 5.1157 19.6563 5.39877 19.4781 5.64897L17.2631 8.77597L14.6051 12.193C14.5236 12.2977 14.4872 12.4305 14.5037 12.5622C14.5202 12.6938 14.5883 12.8136 14.6931 12.895C14.7978 12.9764 14.9306 13.0129 15.0623 12.9964C15.1939 12.9799 15.3136 12.9117 15.3951 12.807L18.3151 9.05197C18.7383 8.98669 19.171 9.02387 19.5769 9.16039C19.9828 9.2969 20.3501 9.52877 20.6479 9.83654C20.9456 10.1443 21.1653 10.519 21.2883 10.9292C21.4114 11.3394 21.4343 11.7731 21.3551 12.194L19.1001 15.2C19.0205 15.3061 18.9863 15.4394 19.0051 15.5707C19.0238 15.702 19.094 15.8204 19.2001 15.9C19.3061 15.9795 19.4395 16.0137 19.5708 15.9949C19.702 15.9762 19.8205 15.9061 19.9001 15.8L21.9511 13.065C22.3193 12.8679 22.733 12.7713 23.1505 12.785C23.568 12.7987 23.9745 12.9222 24.3291 13.143C24.6598 13.3493 24.9345 13.6342 25.1285 13.9723C25.3225 14.3104 25.4299 14.6913 25.4411 15.081L23.2151 18.05C23.1355 18.1561 23.1013 18.2894 23.1201 18.4207C23.1388 18.552 23.209 18.6704 23.3151 18.75C23.4211 18.8295 23.5545 18.8637 23.6858 18.8449C23.817 18.8262 23.9355 18.7561 24.0151 18.65L25.8171 16.247C25.9201 16.295 26.0201 16.35 26.1171 16.413L26.1371 16.426L26.1571 16.439C26.4568 16.6388 26.7122 16.8981 26.9074 17.2008C27.1027 17.5035 27.2336 17.8432 27.292 18.1986C27.3504 18.5541 27.3351 18.9177 27.2471 19.267C27.159 19.6163 27 19.9437 26.7801 20.229L22.4881 25.795C21.284 27.6426 19.4617 29.0015 17.3473 29.6283C15.233 30.2552 12.9645 30.1092 10.9479 29.2165C8.93137 28.3237 7.29831 26.7425 6.34101 24.7558C5.38371 22.769 5.16466 20.5065 5.72306 18.373C5.88975 17.7293 6.1258 17.1057 6.42706 16.513L6.43506 16.498L6.42506 16.5L6.46206 16.445C6.76206 15.867 7.12006 15.325 7.53006 14.825ZM14.2221 3.38797L11.0441 8.01797C10.9284 7.72691 10.8047 7.43913 10.6731 7.15497C10.5961 6.98997 10.4741 6.78697 10.3361 6.55597C9.61906 5.36397 8.46106 3.43597 10.8901 2.22097C11.8161 1.75797 12.7351 2.08097 13.4731 2.65697C13.7521 2.87397 14.0041 3.12697 14.2211 3.38697L14.2221 3.38797Z" fill="black"/>
</g>
</g>
<defs>
<clipPath id="clip0_218_134">
<rect width="32" height="32" fill="white"/>
</clipPath>
</defs>
</svg>
