<svg width="67" height="67" viewBox="0 0 67 67" fill="none" xmlns="http://www.w3.org/2000/svg">
<g clip-path="url(#clip0_11_776)">
<path d="M67 59.5556C67 61.5299 66.2157 63.4235 64.8196 64.8196C63.4235 66.2157 61.5299 67 59.5556 67H7.44444C5.47006 67 3.57653 66.2157 2.18043 64.8196C0.784323 63.4235 0 61.5299 0 59.5556V7.44444C0 5.47006 0.784323 3.57653 2.18043 2.18043C3.57653 0.784323 5.47006 0 7.44444 0L59.5556 0C61.5299 0 63.4235 0.784323 64.8196 2.18043C66.2157 3.57653 67 5.47006 67 7.44444V59.5556Z" fill="#F4900C"/>
<path d="M31.6017 13.2883C29.7034 13.2883 28.5327 14.5166 27.805 16.0241L19.1527 39.2489L10.4967 16.0241C9.77088 14.5166 8.60024 13.2883 6.70191 13.2883C4.46671 13.2883 2.40088 14.9633 2.40088 17.3083C2.40088 18.0899 2.51255 18.6501 2.79171 19.3741L15.0192 50.4733C15.7469 52.2581 16.6942 53.7079 19.1527 53.7079C21.6094 53.7079 22.5586 52.2581 23.2844 50.4733L35.5119 19.3741C35.7911 18.6483 35.9009 18.0899 35.9009 17.3083C35.899 14.9633 33.835 13.2883 31.6017 13.2883ZM45.9509 24.6206C45.9509 22.2756 48.1284 20.9933 50.5311 20.9933C53.8792 20.9933 55.6677 22.6664 57.9569 22.6664C60.2424 22.6664 61.6977 20.7122 61.6977 18.5347C61.6977 14.1239 53.8792 12.9514 50.7525 12.9514C43.3267 12.9514 36.9077 17.8071 36.9077 25.6274C36.9077 38.5789 55.5561 34.6129 55.5561 41.2031C55.5561 43.9408 53.5461 46.0047 49.8629 46.0047C46.2319 46.0047 43.1052 43.8273 40.4811 43.8273C38.19 43.8273 36.7402 45.6121 36.7402 47.7896C36.7402 53.0379 46.0104 54.0448 50.3059 54.0448C58.0127 54.0448 64.5992 49.0756 64.5992 41.0896C64.5974 26.6883 45.9509 30.3714 45.9509 24.6206Z" fill="white"/>
</g>
<defs>
<clipPath id="clip0_11_776">
<rect width="67" height="67" fill="white"/>
</clipPath>
</defs>
</svg>
