<svg width="32" height="32" viewBox="0 0 32 32" fill="none" xmlns="http://www.w3.org/2000/svg">
<path d="M24.0841 6.59412C27.2841 8.94412 28.9601 12.2091 29.0001 16.4691C29.0001 20.9241 28.0611 24.1991 25.9171 26.4291C26.8131 27.1071 27.4371 27.5941 27.4371 27.5941C27.9691 28.0841 28.2811 29.0161 26.9071 29.0161C26.4321 29.0161 26.0041 29.0221 25.6111 29.0281C24.4871 29.0441 23.6461 29.0571 22.8121 28.9061C22.6455 28.8763 22.4801 28.8403 22.3161 28.7981C22.2561 28.8221 22.1961 28.8471 22.1341 28.8701C15.9311 26.6601 15.7761 25.8901 15.5001 21.0001C15.3361 18.0891 12.9221 16.6101 11.0001 16.5001C9.50615 16.4151 4.29215 16.1601 2.04515 16.0501C2.02515 15.6641 2.02115 15.2771 2.03115 14.8901C2.03115 12.2301 5.48415 9.99012 7.83415 9.99012H14.3841C17.8441 9.99012 20.6541 12.8001 20.6541 16.2601C20.4841 18.6721 24.0271 19.6661 24.4741 17.0401C24.9661 14.1451 24.0861 10.8281 22.2421 8.50012C22.0471 8.45312 21.9341 8.45312 21.7971 8.54712C20.5391 9.80512 19.5591 9.85913 17.8671 9.46113C17.7931 9.41313 17.7101 9.38612 17.6321 9.36012C17.4131 9.28712 17.2251 9.22513 17.3281 8.76513C17.4681 8.14013 18.5471 7.09412 18.5471 7.09412C19.3201 6.18712 20.4531 6.00012 20.9221 6.05412C21.1731 6.08412 21.2951 6.12412 21.3651 6.14612C21.4251 6.16612 21.4461 6.17212 21.4771 6.14812C21.5421 6.09612 21.3911 5.78113 21.3911 5.78113C21.2271 4.90613 21.2501 4.37513 21.7541 3.67013C21.7541 3.67013 22.5551 2.52313 23.2741 2.16013C23.9921 1.79713 24.2811 2.16013 24.4371 2.52313C24.9301 3.66913 24.9921 5.09312 24.0841 6.14812L24.0791 6.16012C24.0051 6.33612 23.9821 6.39112 23.9941 6.43712C23.9991 6.45912 24.0121 6.47712 24.0301 6.50612C24.0451 6.52812 24.0631 6.55612 24.0841 6.59412Z" fill="#00A6ED"/>
<path d="M7.19439 25H14.2144L10.4844 27.84C9.49439 28.59 8.29439 29 7.05439 29H3.67239C3.16239 29 2.94239 28.35 3.35239 28.04L7.19439 25Z" fill="#00A6ED"/>
<path d="M21.2444 28.4001C16.8464 26.8991 16.7604 25.3591 16.5164 21.0001L16.5004 20.7191C16.3364 17.8081 12.7344 16.1091 10.8124 16.0001C8.89136 15.8901 2.04736 16.0001 2.04736 16.0001L2.08036 16.5721C2.68836 23.7671 8.36836 30.6251 16.0164 30.0951C18.5094 29.9221 20.5964 29.4961 22.3164 28.7981C21.9458 28.7042 21.5864 28.5708 21.2444 28.4001Z" fill="#AEDDFF"/>
<path d="M15.5171 14.9997C15.3573 14.9984 15.2044 14.9343 15.0914 14.8213C14.9784 14.7083 14.9144 14.5555 14.9131 14.3957V13.6377C14.9131 13.3077 15.1871 13.0337 15.5171 13.0337C15.8471 13.0337 16.1211 13.3077 16.1211 13.6377V14.3957C16.1211 14.5559 16.0575 14.7095 15.9442 14.8228C15.8309 14.9361 15.6773 14.9997 15.5171 14.9997Z" fill="#1C1C1C"/>
<path d="M18.0959 4.12492C18.4187 4.12492 18.7282 3.9967 18.9565 3.76847C19.1847 3.54024 19.3129 3.23069 19.3129 2.90792C19.3129 2.58515 19.1847 2.2756 18.9565 2.04737C18.7282 1.81914 18.4187 1.69092 18.0959 1.69092C17.7731 1.69092 17.4636 1.81914 17.2354 2.04737C17.0071 2.2756 16.8789 2.58515 16.8789 2.90792C16.8789 3.23069 17.0071 3.54024 17.2354 3.76847C17.4636 3.9967 17.7731 4.12492 18.0959 4.12492ZM4.00391 8.99992C4.26912 8.99992 4.52348 8.89456 4.71101 8.70702C4.89855 8.51949 5.00391 8.26513 5.00391 7.99992C5.00391 7.7347 4.89855 7.48035 4.71101 7.29281C4.52348 7.10528 4.26912 6.99992 4.00391 6.99992C3.73869 6.99992 3.48434 7.10528 3.2968 7.29281C3.10926 7.48035 3.00391 7.7347 3.00391 7.99992C3.00391 8.26513 3.10926 8.51949 3.2968 8.70702C3.48434 8.89456 3.73869 8.99992 4.00391 8.99992ZM11.0039 2.82992C11.5339 2.31992 12.2339 1.99992 13.0039 1.99992C14.6639 1.99992 16.0039 3.33992 16.0039 4.99992V5.46992C16.0039 6.30992 15.3139 7.01992 14.4739 6.99992C13.6639 6.97992 13.0039 6.31992 13.0039 5.49992C13.0039 5.22992 12.7739 4.99992 12.5039 4.99992C12.2439 4.99992 12.0339 5.18992 12.0039 5.42992L11.5739 8.49992C11.5339 8.78992 11.2939 8.99992 11.0039 8.99992C10.7139 8.99992 10.4739 8.78992 10.4339 8.49992L10.0039 5.42992C9.98713 5.30969 9.9271 5.1997 9.83506 5.12055C9.74303 5.0414 9.62529 4.99851 9.50391 4.99992C9.23391 4.99992 9.00391 5.22992 9.00391 5.49992C9.00391 6.31992 8.34391 6.97992 7.53391 6.99992C6.69391 7.01992 6.00391 6.30992 6.00391 5.46992V4.99992C6.00391 3.33992 7.34391 1.99992 9.00391 1.99992C9.77391 1.99992 10.4739 2.31992 11.0039 2.82992Z" fill="#26EAFC"/>
</svg>
