<svg width="22" height="26" viewBox="0 0 22 26" fill="none" xmlns="http://www.w3.org/2000/svg">
<path d="M9.5 -0.0310059C7.542 -0.0310059 5.969 1.59599 5.969 3.56299V3.99999H2C1.449 3.99999 1 4.44899 1 4.99999V5.99999H0V7.99999H2V23C2 24.645 3.355 26 5 26H17C18.645 26 20 24.645 20 23V7.99999H22V5.99999H21V4.99999C21 4.44899 20.551 3.99999 20 3.99999H16.031V3.56199C16.031 1.59599 14.458 -0.0310059 12.5 -0.0310059H9.5ZM9.5 2.03099H12.5C13.304 2.03099 13.969 2.68699 13.969 3.56199V3.99999H8.03V3.56199C8.03 2.68699 8.695 2.03199 9.499 2.03199L9.5 2.03099ZM4 7.99999H9.125C9.249 8.01299 9.372 8.03099 9.5 8.03099H12.5C12.628 8.03099 12.75 8.01299 12.875 7.99999H18V23C18 23.563 17.563 24 17 24H5C4.437 24 4 23.563 4 23V7.99999ZM6 9.99999V22H8V9.99999H6ZM10 9.99999V22H12V9.99999H10ZM14 9.99999V22H16V9.99999H14Z" fill="white"/>
</svg>
