<svg width="201" height="169" viewBox="0 0 201 169" fill="none" xmlns="http://www.w3.org/2000/svg">
<path d="M200.009 84.0108C200.009 87.1934 198.745 90.2457 196.495 92.4961C194.244 94.7465 191.192 96.0108 188.009 96.0108H41.0095L92.5295 147.521C94.7838 149.775 96.0503 152.833 96.0503 156.021C96.0503 159.209 94.7838 162.266 92.5295 164.521C90.2751 166.775 87.2176 168.042 84.0295 168.042C80.8413 168.042 77.7838 166.775 75.5295 164.521L3.52946 92.5208C2.41074 91.406 1.5231 90.0813 0.917435 88.6226C0.31177 87.164 0 85.6002 0 84.0208C0 82.4414 0.31177 80.8776 0.917435 79.419C1.5231 77.9604 2.41074 76.6357 3.52946 75.5208L75.5295 3.52081C76.6457 2.40458 77.9709 1.51913 79.4293 0.915028C80.8877 0.310925 82.4509 0 84.0295 0C85.6081 0 87.1712 0.310925 88.6296 0.915028C90.0881 1.51913 91.4132 2.40458 92.5295 3.52081C93.6457 4.63705 94.5311 5.96221 95.1352 7.42065C95.7393 8.87908 96.0503 10.4422 96.0503 12.0208C96.0503 13.5994 95.7393 15.1626 95.1352 16.621C94.5311 18.0794 93.6457 19.4046 92.5295 20.5208L41.0095 72.0108H188.009C191.192 72.0108 194.244 73.2751 196.495 75.5255C198.745 77.776 200.009 80.8282 200.009 84.0108Z" fill="white"/>
</svg>
