<svg width="217" height="121" viewBox="0 0 217 121" fill="none" xmlns="http://www.w3.org/2000/svg">
<path d="M176.358 47.6991C177.744 49.6828 179.232 51.604 180.494 53.6638C182.832 57.4791 185.05 61.3684 187.285 65.2456C187.618 65.8218 187.926 66.1123 188.635 65.9374C189.234 65.7896 189.873 65.766 190.495 65.7529C193.801 65.6827 197.114 65.4747 200.412 65.6158C204.769 65.8023 209.058 66.6013 213.123 68.2399C214.213 68.6796 215.222 69.5102 216.038 70.3781C216.575 70.9497 216.87 71.8873 216.976 72.6997C217.193 74.3706 215.939 75.6644 214.261 75.5506C212.995 75.4646 211.746 75.1468 210.48 75.0089C207.638 74.6991 204.785 74.1683 201.946 74.2269C198.766 74.2926 195.57 74.7589 192.428 75.32C187.237 76.2472 182.263 77.9288 177.404 80C171.643 82.4554 166.209 85.5402 160.659 88.4048C156.027 90.7955 151.368 93.1637 146.332 94.5807C141.927 95.8202 137.475 96.9195 133 97.8789C128.527 98.838 124.019 99.6677 119.493 100.327C115.898 100.85 112.258 101.133 108.628 101.333C105.33 101.516 102.016 101.521 98.7111 101.466C93.6112 101.381 88.5126 101.194 83.4145 101.019C79.6437 100.889 75.8759 100.667 72.1046 100.561C67.2128 100.424 62.3165 100.22 57.4266 100.304C51.6254 100.404 45.7934 100.667 40.1874 102.317C36.7803 103.32 33.474 104.701 30.1879 106.069C27.4274 107.219 24.7475 108.568 22.0582 109.882C19.4628 111.15 17.2882 113.031 15.065 114.838C13.0267 116.494 11.0153 118.191 8.89651 119.739C7.00362 121.123 4.85221 121.402 2.68414 120.405C0.599203 119.446 -0.429315 116.967 0.16856 114.731C0.620693 113.039 1.65899 111.8 2.99843 110.728C7.06014 107.479 11.0255 104.105 15.1699 100.966C17.3343 99.3269 19.7687 98.0334 22.1342 96.6763C23.3453 95.9815 23.4685 95.9877 23.0723 94.6668C21.8231 90.5024 21.8215 86.3018 22.6182 82.0652C22.7912 81.1456 22.9189 80.2157 23.0253 79.2857C23.3759 76.2211 25.5223 74.1707 28.6231 74.1732C33.256 74.177 37.883 74.3779 42.464 75.1632C42.6531 75.1956 42.8462 75.2038 43.1012 75.0613C42.4845 74.7044 41.8566 74.3656 41.253 73.9879C37.1717 71.4344 33.1247 68.8246 29.0092 66.3278C25.2895 64.071 21.6932 61.6428 18.25 58.9891C14.804 56.3332 11.4387 53.5641 8.56448 50.2877C6.77088 48.2431 5.05208 46.0891 3.61342 43.7879C1.89842 41.0446 1.49213 37.9475 2.23815 34.7523C2.8508 32.1283 3.57553 29.5477 5.23185 27.3469C6.16268 26.1101 7.21642 25.0155 8.59864 24.2551C8.88732 24.0962 9.15683 23.6796 9.20855 23.3466C9.81104 19.4665 12.2846 17.3668 15.8749 16.4534C19.6981 15.4807 23.6066 15.3684 27.5061 15.8736C30.6752 16.2841 33.8791 16.6456 36.963 17.437C40.4503 18.3318 44.0233 19.1065 47.1967 20.9609C47.6571 21.23 47.9222 21.1232 48.2331 20.7139C50.3484 17.9289 52.959 15.6819 55.8185 13.6898C59.168 11.3564 62.7435 9.46234 66.5053 7.89332C70.7359 6.12876 75.1458 5.03062 79.6441 4.23899C85.1735 3.26589 90.7472 2.91175 96.3555 3.01822C101.813 3.12183 107.188 3.86347 112.502 5.08648C119.045 6.59227 125.359 8.75567 131.467 11.5519C136.542 13.8755 141.437 16.5185 146.125 19.5427C147.83 20.6425 149.482 21.8251 151.22 23.0392C151.451 23.2971 151.597 23.516 151.794 23.6694C153.126 24.7073 154.467 25.733 155.808 26.759C156.507 27.2935 157.211 27.8205 157.952 28.3849C159.828 30.0612 161.736 31.6311 163.483 33.3634C165.989 35.8476 168.377 38.4502 170.841 41.0539C170.956 41.2618 171.028 41.4335 171.14 41.5722C172.671 43.4664 174.204 45.3595 175.751 47.2415C175.907 47.4319 176.154 47.5483 176.358 47.6991ZM33.569 32.5452C34.482 33.1461 35.3646 33.8006 36.3134 34.3383C39.6188 36.2115 42.9046 38.1264 46.2779 39.8702C49.9521 41.7695 53.6536 43.6412 57.4544 45.2643C63.525 47.8567 69.8762 49.6198 76.2839 51.1863C81.0921 52.3617 85.9247 53.3674 90.8508 53.899C93.8561 54.2233 96.8522 54.407 99.8753 54.045C101.285 53.8763 102.726 53.7965 104.126 54.3093C107.29 55.468 108.833 58.7623 107.584 61.8414C106.661 64.1163 104.794 65.2376 102.502 65.6438C99.7034 66.1397 96.8709 66.3238 94.03 66.0278C90.6434 65.6749 87.2307 65.4635 83.8817 64.8862C79.8098 64.1843 75.7923 63.166 71.7518 62.2824C66.5775 61.1509 61.532 59.5659 56.6006 57.6655C53.2303 56.3668 49.9387 54.8403 46.6893 53.2566C42.222 51.0793 37.781 48.8375 33.4197 46.4564C30.7518 44.9998 28.2517 43.2349 25.6813 41.6004C22.3237 39.4654 18.8379 37.5167 15.8515 34.8405C15.1233 34.1878 14.384 33.5475 13.5242 32.791C13.4486 33.1837 13.3586 33.4235 13.3652 33.6606C13.3827 34.2844 13.4154 34.9103 13.4906 35.5295C13.6419 36.7735 13.7941 38.0301 14.6336 39.0458C15.5787 40.189 16.5051 41.3523 17.5162 42.4352C21.5398 46.7442 26.2356 50.2538 31.0872 53.5402C35.1378 56.2841 39.296 58.8731 43.4616 61.4414C45.8741 62.9288 48.3346 64.3642 50.8799 65.6045C56.381 68.2849 61.9564 70.8131 66.6068 74.9235C68.45 76.5526 70.1487 78.2927 71.3517 80.476C72.7131 82.9468 72.8792 86.2402 70.5388 88.3798C70.4902 88.4242 70.4853 88.5164 70.421 88.694C70.6561 88.7519 70.8612 88.8378 71.07 88.8482C72.2655 88.9073 73.4615 88.963 74.6581 88.9932C79.1085 89.1054 83.5592 89.2029 88.0096 89.3143C91.9915 89.4139 95.9726 89.5782 99.9549 89.6137C103.209 89.6427 106.466 89.5761 109.717 89.4503C111.558 89.3791 113.396 89.1364 115.227 88.9123C118.531 88.5082 121.842 88.141 125.126 87.6085C128.769 87.0177 132.422 86.4132 136.001 85.5289C139.404 84.688 142.73 83.5196 146.065 82.4194C149.503 81.2852 152.885 80.0051 156.106 78.3202C160.212 76.1726 164.325 74.0352 168.49 72.005C170.403 71.0723 172.437 70.3827 174.433 69.6255C175.845 69.0899 175.902 69.0537 175.128 67.7328C173.944 65.7115 172.75 63.695 171.511 61.7073C168 56.0758 163.91 50.8819 159.333 46.0906C156.763 43.4 154.059 40.8277 151.295 38.3345C147.619 35.0172 143.635 32.0745 139.462 29.4127C133.918 25.8761 128.156 22.7251 121.955 20.4865C118.434 19.215 114.859 18.0624 111.25 17.0682C106.168 15.6686 100.951 15.0176 95.6945 14.6608C91.2887 14.3617 86.8928 14.4804 82.5286 15.0879C77.5134 15.7861 72.6117 17.0312 67.8906 18.8675C64.6924 20.1114 61.5612 21.5339 58.4326 22.9486C56.2512 23.935 54.1309 25.056 51.9713 26.0918C51.0371 26.5399 49.9651 26.7781 49.1498 27.3763C48.1717 28.094 47.1916 28.5443 45.995 28.4869C42.8517 28.3361 39.706 28.2155 36.5673 27.9958C33.7928 27.8016 31.0281 27.4707 28.2557 27.2418C27.3763 27.1692 26.486 27.2304 25.6007 27.2304C25.5625 27.2915 25.5244 27.3526 25.4862 27.4137C28.1502 29.1018 30.8143 30.79 33.569 32.5452ZM51.0191 85.1564C49.1286 84.7989 47.2343 84.4596 45.3482 84.0799C41.7648 83.3586 38.1551 82.9665 34.4939 83.0504C33.7904 83.0665 33.5736 83.2961 33.6535 83.9745C33.7811 85.0578 33.8649 86.1468 33.9453 87.235C34.0276 88.3507 34.0573 89.4707 34.1595 90.5843C34.2415 91.4789 34.4798 91.6071 35.3282 91.3362C40.1963 89.7814 45.2028 89.0394 50.2947 88.8869C54.1971 88.7699 58.1026 88.76 62.0067 88.6978C62.2688 88.6936 62.5303 88.6505 62.8796 88.6171C62.3854 87.7942 61.7675 87.4681 60.9815 87.3047C57.6977 86.6224 54.4224 85.8997 51.0191 85.1564Z" fill="#FDFEFF"/>
<path d="M157.658 28.601C156.955 28.0682 156.249 27.5389 155.548 27.002C154.204 25.9714 152.86 24.9411 151.524 23.8986C151.327 23.7444 151.181 23.5246 151 23.3031C152.369 20.4554 153.691 17.6092 155.151 14.8364C155.931 13.356 157.008 12.055 158.405 11.0694C158.596 10.9349 158.805 10.795 158.934 10.6079C160.124 8.87515 161.764 8.75456 163.594 9.26194C165.092 9.67736 165.785 10.6618 165.956 12.1991C166.082 13.3288 166.436 14.4385 166.748 15.5404C167.089 16.7467 167.53 17.9249 167.865 19.1326C168.072 19.877 168.422 20.2295 169.244 20.1473C171.224 19.9497 173.165 19.6229 175.044 18.9324C177.439 18.0524 179.911 19.4968 180.376 22.0248C180.707 23.8202 180.313 25.5711 179.932 27.3077C179.431 29.5949 179.695 30.1796 181.856 31.0363C183.191 31.5652 184.544 32.046 185.892 32.5392C188.334 33.4326 189.475 35.5967 188.816 38.1093C188.524 39.2215 187.693 39.9387 186.84 40.5698C183.946 42.7103 181.017 44.8029 178.086 46.8923C177.515 47.2991 176.876 47.6096 176.209 48C175.944 47.8841 175.697 47.7671 175.54 47.5759C173.99 45.6855 172.453 43.7839 170.917 41.8813C170.805 41.7419 170.733 41.5695 170.66 41.3187C172.03 39.7824 173.768 38.9369 175.502 38.0815C176.269 37.7032 176.306 37.4782 175.664 36.9945C172.927 34.931 171.662 32.1739 171.82 28.7648C171.855 28.0141 171.54 27.8777 170.894 27.9368C170.014 28.0176 169.124 28.1046 168.244 28.0646C166.454 27.9833 164.827 27.448 163.479 26.1778C162.458 25.2153 161.846 24.0263 161.358 22.7427C161.273 22.518 161.082 22.3337 160.939 22.1308C160.763 22.2997 160.518 22.4361 160.421 22.6424C159.486 24.6219 158.575 26.6131 157.658 28.601Z" fill="#EDDF67"/>
<path d="M169.765 1.06863C171.119 2.64713 171.397 4.33201 170.412 6.04622C169.638 7.39268 168.37 8.12162 166.78 7.98333C164.593 7.79315 163.287 6.43412 163.038 4.58346C162.761 2.52814 164.043 0.596919 165.946 0.133631C167.32 -0.200967 168.618 0.0863072 169.765 1.06863Z" fill="#EADF6C"/>
<path d="M196.786 32.8925C194.878 34.4395 192.189 34.3488 190.783 32.7271C189.51 31.258 189.819 29.1804 191.494 27.9533C193.262 26.6584 195.518 26.6851 197.002 28.0185C198.404 29.2786 198.326 31.4599 196.786 32.8925Z" fill="#EADF6B"/>
<path d="M183.656 17.9841C181.682 18.1592 180.498 16.8619 180.109 15.4516C179.692 13.9403 180.505 12.2449 182.044 11.3583C183.253 10.6615 185.257 11.0056 186.157 12.1767C187.906 14.4517 186.748 17.054 184.389 17.8338C184.173 17.9052 183.942 17.9262 183.656 17.9841Z" fill="#EADF6B"/>
<path d="M125.934 69.4725C124.941 69.9587 124.033 70.5549 123.034 70.8319C121.48 71.2625 120.015 70.8667 118.945 69.6347C117.709 68.2096 117.601 66.5125 118.403 64.9082C119.503 62.7077 120.555 60.4296 122.683 58.9135C122.778 58.8461 122.837 58.7309 122.855 58.4427C122.084 58.5522 121.307 58.6306 120.544 58.7785C119.451 58.9905 118.37 59.2601 117.28 59.4891C117.004 59.5471 116.714 59.5651 116.43 59.5655C115.432 59.5671 114.567 59.3018 114.154 58.3055C113.749 57.3299 114.194 56.5441 114.886 55.9118C116.454 54.4791 118.221 53.3282 120.229 52.5608C124.032 51.1071 127.942 50.5788 131.978 51.3614C134.432 51.8372 136.609 52.9964 138.735 54.2199C139.752 54.8053 140.775 55.4579 141.6 56.2705C142.917 57.5671 143.273 59.2282 142.802 61.0025C142.45 62.3291 141.509 63.2245 140.236 63.6768C138.031 64.4603 135.986 64.0837 134.232 62.5284C133.607 61.973 133.078 61.3123 132.392 60.7432C131.228 64.4326 128.933 67.171 125.934 69.4725Z" fill="#FDFEFF"/>
</svg>
