<svg width="18" height="21" viewBox="0 0 18 21" fill="none" xmlns="http://www.w3.org/2000/svg">
<path d="M9 21L6 18H2C1.45 18 0.979002 17.804 0.587002 17.412C0.195002 17.02 -0.000664969 16.5493 1.69779e-06 16V2C1.69779e-06 1.45 0.196002 0.979002 0.588002 0.587002C0.980002 0.195002 1.45067 -0.000664969 2 1.69779e-06H16C16.55 1.69779e-06 17.021 0.196002 17.413 0.588002C17.805 0.980002 18.0007 1.45067 18 2V16C18 16.55 17.804 17.021 17.412 17.413C17.02 17.805 16.5493 18.0007 16 18H12L9 21ZM9 10C9.96667 10 10.7917 9.65834 11.475 8.975C12.1583 8.29167 12.5 7.46667 12.5 6.5C12.5 5.53334 12.1583 4.70834 11.475 4.025C10.7917 3.34167 9.96667 3 9 3C8.03334 3 7.20833 3.34167 6.525 4.025C5.84167 4.70834 5.5 5.53334 5.5 6.5C5.5 7.46667 5.84167 8.29167 6.525 8.975C7.20833 9.65834 8.03334 10 9 10ZM9 18.2L11.2 16H16V14.85C15.1 13.9667 14.054 13.271 12.862 12.763C11.67 12.255 10.3827 12.0007 9 12C7.61667 12 6.329 12.2543 5.137 12.763C3.945 13.2717 2.89934 13.9673 2 14.85V16H6.8L9 18.2Z" fill="white"/>
</svg>
